<?xml version="1.0" encoding="UTF-8" standalone="no"?>
<!DOCTYPE svg PUBLIC "-//W3C//DTD SVG 1.1//EN"
 "http://www.w3.org/Graphics/SVG/1.1/DTD/svg11.dtd">
<!-- Generated by graphviz version 2.38.0 (20140413.2041)
 -->
<!-- Title: G Pages: 1 -->
<svg width="573pt" height="1158pt"
 viewBox="0.00 0.00 572.59 1158.00" xmlns="http://www.w3.org/2000/svg" xmlns:xlink="http://www.w3.org/1999/xlink">
<g id="graph0" class="graph" transform="scale(1 1) rotate(0) translate(4 1154)">
<title>G</title>
<polygon fill="white" stroke="none" points="-4,4 -4,-1154 568.588,-1154 568.588,4 -4,4"/>
<g id="clust1" class="cluster"><title>cluster_Global</title>
<path fill="none" stroke="gray" d="M20,-152C20,-152 544.588,-152 544.588,-152 550.588,-152 556.588,-158 556.588,-164 556.588,-164 556.588,-1130 556.588,-1130 556.588,-1136 550.588,-1142 544.588,-1142 544.588,-1142 20,-1142 20,-1142 14,-1142 8,-1136 8,-1130 8,-1130 8,-164 8,-164 8,-158 14,-152 20,-152"/>
<text text-anchor="middle" x="282.294" y="-1129.2" font-family="Times,serif" font-size="11.00" fill="gray">Global</text>
</g>
<!-- \\OwpBaseFramework -->
<g id="node1" class="node"><title>\\OwpBaseFramework</title>
<polygon fill="none" stroke="black" points="535.088,-1114 410.088,-1114 410.088,-1078 535.088,-1078 535.088,-1114"/>
<text text-anchor="middle" x="472.588" y="-1093.2" font-family="Courier,monospace" font-size="11.00">OwpBaseFramework</text>
</g>
<!-- \\OwpCms -->
<g id="node2" class="node"><title>\\OwpCms</title>
<polygon fill="none" stroke="black" points="501.088,-1060 444.088,-1060 444.088,-1024 501.088,-1024 501.088,-1060"/>
<text text-anchor="middle" x="472.588" y="-1039.2" font-family="Courier,monospace" font-size="11.00">OwpCms</text>
</g>
<!-- \\OwpConfig -->
<g id="node3" class="node"><title>\\OwpConfig</title>
<polygon fill="none" stroke="black" points="511.088,-1006 434.088,-1006 434.088,-970 511.088,-970 511.088,-1006"/>
<text text-anchor="middle" x="472.588" y="-985.2" font-family="Courier,monospace" font-size="11.00">OwpConfig</text>
</g>
<!-- \\OwpDefaultMod -->
<g id="node4" class="node"><title>\\OwpDefaultMod</title>
<polygon fill="none" stroke="black" points="524.588,-952 420.588,-952 420.588,-916 524.588,-916 524.588,-952"/>
<text text-anchor="middle" x="472.588" y="-931.2" font-family="Courier,monospace" font-size="11.00">OwpDefaultMod</text>
</g>
<!-- \\OwpMod -->
<g id="node12" class="node"><title>\\OwpMod</title>
<polygon fill="none" stroke="black" points="286.794,-952 229.794,-952 229.794,-916 286.794,-916 286.794,-952"/>
<text text-anchor="middle" x="258.294" y="-931.2" font-family="Courier,monospace" font-size="11.00">OwpMod</text>
</g>
<!-- \\OwpDefaultMod&#45;&gt;\\OwpMod -->
<g id="edge1" class="edge"><title>\\OwpDefaultMod&#45;&gt;\\OwpMod</title>
<path fill="none" stroke="black" d="M420.468,-934C382.442,-934 331.392,-934 297.021,-934"/>
<polygon fill="none" stroke="black" points="296.923,-930.5 286.923,-934 296.923,-937.5 296.923,-930.5"/>
</g>
<!-- \\OwpDkim -->
<g id="node5" class="node"><title>\\OwpDkim</title>
<polygon fill="none" stroke="black" points="504.588,-898 440.588,-898 440.588,-862 504.588,-862 504.588,-898"/>
<text text-anchor="middle" x="472.588" y="-877.2" font-family="Courier,monospace" font-size="11.00">OwpDkim</text>
</g>
<!-- \\OwpException -->
<g id="node6" class="node"><title>\\OwpException</title>
<polygon fill="none" stroke="black" points="307.294,-521 209.294,-521 209.294,-485 307.294,-485 307.294,-521"/>
<text text-anchor="start" x="224.294" y="-506.2" font-family="Courier,monospace" font-size="11.00">«abstract»</text>
<text text-anchor="start" x="217.294" y="-494.2" font-family="Courier,monospace" font-size="11.00">OwpException</text>
</g>
<!-- \\IOwpException -->
<g id="node21" class="node"><title>\\IOwpException</title>
<polygon fill="none" stroke="black" points="120,-521 16,-521 16,-485 120,-485 120,-521"/>
<text text-anchor="middle" x="68" y="-500.2" font-family="Courier,monospace" font-size="11.00">IOwpException</text>
</g>
<!-- \\OwpException&#45;&gt;\\IOwpException -->
<g id="edge3" class="edge"><title>\\OwpException&#45;&gt;\\IOwpException</title>
<path fill="none" stroke="black" stroke-dasharray="1,5" d="M209.292,-503C185.351,-503 156.121,-503 130.55,-503"/>
<polygon fill="none" stroke="black" points="130.213,-499.5 120.213,-503 130.213,-506.5 130.213,-499.5"/>
</g>
<!-- \\Exception -->
<g id="node22" class="node"><title>\\Exception</title>
<ellipse fill="none" stroke="black" cx="68" cy="-126" rx="40.8928" ry="18"/>
<text text-anchor="middle" x="68" y="-122.3" font-family="Times,serif" font-size="14.00" fill="gray">xception</text>
</g>
<!-- \\OwpException&#45;&gt;\\Exception -->
<g id="edge2" class="edge"><title>\\OwpException&#45;&gt;\\Exception</title>
<path fill="none" stroke="black" d="M255.236,-484.901C247.835,-427.826 217.606,-249.411 120,-148 117.407,-145.306 114.429,-142.923 111.242,-140.819"/>
<polygon fill="none" stroke="black" points="112.874,-137.721 102.441,-135.878 109.448,-143.825 112.874,-137.721"/>
</g>
<!-- \\OwpEzSqlMysql -->
<g id="node7" class="node"><title>\\OwpEzSqlMysql</title>
<polygon fill="none" stroke="black" points="524.588,-790 420.588,-790 420.588,-754 524.588,-754 524.588,-790"/>
<text text-anchor="middle" x="472.588" y="-769.2" font-family="Courier,monospace" font-size="11.00">OwpEzSqlMysql</text>
</g>
<!-- \\ezSQL_mysql -->
<g id="node23" class="node"><title>\\ezSQL_mysql</title>
<ellipse fill="none" stroke="black" cx="258.294" cy="-126" rx="63.8893" ry="18"/>
<text text-anchor="middle" x="258.294" y="-122.3" font-family="Times,serif" font-size="14.00" fill="gray">\ezSQL_mysql</text>
</g>
<!-- \\OwpEzSqlMysql&#45;&gt;\\ezSQL_mysql -->
<g id="edge4" class="edge"><title>\\OwpEzSqlMysql&#45;&gt;\\ezSQL_mysql</title>
<path fill="none" stroke="black" d="M420.286,-762.119C411.205,-758.185 402.71,-752.685 396.588,-745 230.075,-535.956 493.242,-355.32 324.588,-148 322.904,-145.93 321.017,-144.053 318.976,-142.352"/>
<polygon fill="none" stroke="black" points="320.694,-139.29 310.44,-136.624 316.794,-145.103 320.694,-139.29"/>
</g>
<!-- \\OwpEzSqlMysqli -->
<g id="node8" class="node"><title>\\OwpEzSqlMysqli</title>
<polygon fill="none" stroke="black" points="528.088,-736 417.088,-736 417.088,-700 528.088,-700 528.088,-736"/>
<text text-anchor="middle" x="472.588" y="-715.2" font-family="Courier,monospace" font-size="11.00">OwpEzSqlMysqli</text>
</g>
<!-- \\ezSQL_mysqli -->
<g id="node24" class="node"><title>\\ezSQL_mysqli</title>
<ellipse fill="none" stroke="black" cx="258.294" cy="-72" rx="66.0889" ry="18"/>
<text text-anchor="middle" x="258.294" y="-68.3" font-family="Times,serif" font-size="14.00" fill="gray">\ezSQL_mysqli</text>
</g>
<!-- \\OwpEzSqlMysqli&#45;&gt;\\ezSQL_mysqli -->
<g id="edge5" class="edge"><title>\\OwpEzSqlMysqli&#45;&gt;\\ezSQL_mysqli</title>
<path fill="none" stroke="black" d="M416.871,-706.542C409.095,-702.751 401.937,-697.709 396.588,-691 231.346,-483.765 484.964,-310.024 324.588,-99 321.958,-95.539 318.805,-92.5189 315.324,-89.8838"/>
<polygon fill="none" stroke="black" points="317.017,-86.8128 306.698,-84.408 313.265,-92.7225 317.017,-86.8128"/>
</g>
<!-- \\OwpFirePHP -->
<g id="node9" class="node"><title>\\OwpFirePHP</title>
<polygon fill="none" stroke="black" points="514.588,-304 430.588,-304 430.588,-268 514.588,-268 514.588,-304"/>
<text text-anchor="middle" x="472.588" y="-283.2" font-family="Courier,monospace" font-size="11.00">OwpFirePHP</text>
</g>
<!-- \\FirePHP -->
<g id="node25" class="node"><title>\\FirePHP</title>
<ellipse fill="none" stroke="black" cx="258.294" cy="-18" rx="43.5923" ry="18"/>
<text text-anchor="middle" x="258.294" y="-14.3" font-family="Times,serif" font-size="14.00" fill="gray">\FirePHP</text>
</g>
<!-- \\OwpFirePHP&#45;&gt;\\FirePHP -->
<g id="edge6" class="edge"><title>\\OwpFirePHP&#45;&gt;\\FirePHP</title>
<path fill="none" stroke="black" d="M430.432,-278.414C418.219,-274.404 405.69,-268.295 396.588,-259 326.379,-187.301 393.11,-118.314 324.588,-45 319.229,-39.2658 312.47,-34.7114 305.345,-31.1051"/>
<polygon fill="none" stroke="black" points="306.762,-27.9046 296.203,-27.0269 303.91,-34.2973 306.762,-27.9046"/>
</g>
<!-- \\OwpFramework -->
<g id="node10" class="node"><title>\\OwpFramework</title>
<polygon fill="none" stroke="black" points="521.588,-682 423.588,-682 423.588,-646 521.588,-646 521.588,-682"/>
<text text-anchor="middle" x="472.588" y="-661.2" font-family="Courier,monospace" font-size="11.00">OwpFramework</text>
</g>
<!-- \\OwpMessaging -->
<g id="node11" class="node"><title>\\OwpMessaging</title>
<polygon fill="none" stroke="black" points="521.588,-628 423.588,-628 423.588,-592 521.588,-592 521.588,-628"/>
<text text-anchor="middle" x="472.588" y="-607.2" font-family="Courier,monospace" font-size="11.00">OwpMessaging</text>
</g>
<!-- \\OwpPasswordValidator -->
<g id="node13" class="node"><title>\\OwpPasswordValidator</title>
<polygon fill="none" stroke="black" points="548.588,-574 396.588,-574 396.588,-538 548.588,-538 548.588,-574"/>
<text text-anchor="middle" x="472.588" y="-553.2" font-family="Courier,monospace" font-size="11.00">OwpPasswordValidator</text>
</g>
<!-- \\OwpPostmark -->
<g id="node14" class="node"><title>\\OwpPostmark</title>
<polygon fill="none" stroke="black" points="518.088,-520 427.088,-520 427.088,-484 518.088,-484 518.088,-520"/>
<text text-anchor="middle" x="472.588" y="-499.2" font-family="Courier,monospace" font-size="11.00">OwpPostmark</text>
</g>
<!-- \\OwpSettings -->
<g id="node15" class="node"><title>\\OwpSettings</title>
<polygon fill="none" stroke="black" points="518.088,-466 427.088,-466 427.088,-430 518.088,-430 518.088,-466"/>
<text text-anchor="middle" x="472.588" y="-445.2" font-family="Courier,monospace" font-size="11.00">OwpSettings</text>
</g>
<!-- \\OwpStdObject -->
<g id="node16" class="node"><title>\\OwpStdObject</title>
<polygon fill="none" stroke="black" points="521.588,-412 423.588,-412 423.588,-376 521.588,-376 521.588,-412"/>
<text text-anchor="middle" x="472.588" y="-391.2" font-family="Courier,monospace" font-size="11.00">OwpStdObject</text>
</g>
<!-- \\OwpSupportMethods -->
<g id="node17" class="node"><title>\\OwpSupportMethods</title>
<polygon fill="none" stroke="black" points="538.088,-358 407.088,-358 407.088,-322 538.088,-322 538.088,-358"/>
<text text-anchor="middle" x="472.588" y="-337.2" font-family="Courier,monospace" font-size="11.00">OwpSupportMethods</text>
</g>
<!-- \\OwpUserException -->
<g id="node18" class="node"><title>\\OwpUserException</title>
<polygon fill="none" stroke="black" points="535.088,-844 410.088,-844 410.088,-808 535.088,-808 535.088,-844"/>
<text text-anchor="middle" x="472.588" y="-823.2" font-family="Courier,monospace" font-size="11.00">OwpUserException</text>
</g>
<!-- \\OwpUserException&#45;&gt;\\OwpException -->
<g id="edge7" class="edge"><title>\\OwpUserException&#45;&gt;\\OwpException</title>
<path fill="none" stroke="black" d="M409.863,-808.542C405.079,-805.803 400.57,-802.643 396.588,-799 314.358,-723.762 277.428,-589.328 264.738,-531.134"/>
<polygon fill="none" stroke="black" points="268.129,-530.252 262.645,-521.186 261.279,-531.693 268.129,-530.252"/>
</g>
<!-- \\OwpUsers -->
<g id="node19" class="node"><title>\\OwpUsers</title>
<polygon fill="none" stroke="black" points="508.088,-250 437.088,-250 437.088,-214 508.088,-214 508.088,-250"/>
<text text-anchor="middle" x="472.588" y="-229.2" font-family="Courier,monospace" font-size="11.00">OwpUsers</text>
</g>
<!-- \\OwpAjax -->
<g id="node20" class="node"><title>\\OwpAjax</title>
<polygon fill="none" stroke="black" points="504.588,-196 440.588,-196 440.588,-160 504.588,-160 504.588,-196"/>
<text text-anchor="middle" x="472.588" y="-175.2" font-family="Courier,monospace" font-size="11.00">OwpAjax</text>
</g>
</g>
</svg>
