<?xml version="1.0" encoding="UTF-8" standalone="no"?>
<!DOCTYPE svg PUBLIC "-//W3C//DTD SVG 1.1//EN"
 "http://www.w3.org/Graphics/SVG/1.1/DTD/svg11.dtd">
<!-- Generated by graphviz version 2.38.0 (20140413.2041)
 -->
<!-- Title: G Pages: 1 -->
<svg width="573pt" height="1050pt"
 viewBox="0.00 0.00 572.59 1050.00" xmlns="http://www.w3.org/2000/svg" xmlns:xlink="http://www.w3.org/1999/xlink">
<g id="graph0" class="graph" transform="scale(1 1) rotate(0) translate(4 1046)">
<title>G</title>
<polygon fill="white" stroke="none" points="-4,4 -4,-1046 568.588,-1046 568.588,4 -4,4"/>
<g id="clust1" class="cluster"><title>cluster_Global</title>
<path fill="none" stroke="gray" d="M20,-152C20,-152 544.588,-152 544.588,-152 550.588,-152 556.588,-158 556.588,-164 556.588,-164 556.588,-1022 556.588,-1022 556.588,-1028 550.588,-1034 544.588,-1034 544.588,-1034 20,-1034 20,-1034 14,-1034 8,-1028 8,-1022 8,-1022 8,-164 8,-164 8,-158 14,-152 20,-152"/>
<text text-anchor="middle" x="282.294" y="-1021.2" font-family="Times,serif" font-size="11.00" fill="gray">Global</text>
</g>
<!-- \\OwpBaseFramework -->
<g id="node1" class="node"><title>\\OwpBaseFramework</title>
<polygon fill="none" stroke="black" points="535.088,-1006 410.088,-1006 410.088,-970 535.088,-970 535.088,-1006"/>
<text text-anchor="middle" x="472.588" y="-985.2" font-family="Courier,monospace" font-size="11.00">OwpBaseFramework</text>
</g>
<!-- \\OwpCms -->
<g id="node2" class="node"><title>\\OwpCms</title>
<polygon fill="none" stroke="black" points="501.088,-952 444.088,-952 444.088,-916 501.088,-916 501.088,-952"/>
<text text-anchor="middle" x="472.588" y="-931.2" font-family="Courier,monospace" font-size="11.00">OwpCms</text>
</g>
<!-- \\OwpDefaultMod -->
<g id="node3" class="node"><title>\\OwpDefaultMod</title>
<polygon fill="none" stroke="black" points="524.588,-898 420.588,-898 420.588,-862 524.588,-862 524.588,-898"/>
<text text-anchor="middle" x="472.588" y="-877.2" font-family="Courier,monospace" font-size="11.00">OwpDefaultMod</text>
</g>
<!-- \\OwpMod -->
<g id="node11" class="node"><title>\\OwpMod</title>
<polygon fill="none" stroke="black" points="286.794,-898 229.794,-898 229.794,-862 286.794,-862 286.794,-898"/>
<text text-anchor="middle" x="258.294" y="-877.2" font-family="Courier,monospace" font-size="11.00">OwpMod</text>
</g>
<!-- \\OwpDefaultMod&#45;&gt;\\OwpMod -->
<g id="edge1" class="edge"><title>\\OwpDefaultMod&#45;&gt;\\OwpMod</title>
<path fill="none" stroke="black" d="M420.468,-880C382.442,-880 331.392,-880 297.021,-880"/>
<polygon fill="none" stroke="black" points="296.923,-876.5 286.923,-880 296.923,-883.5 296.923,-876.5"/>
</g>
<!-- \\OwpDkim -->
<g id="node4" class="node"><title>\\OwpDkim</title>
<polygon fill="none" stroke="black" points="504.588,-844 440.588,-844 440.588,-808 504.588,-808 504.588,-844"/>
<text text-anchor="middle" x="472.588" y="-823.2" font-family="Courier,monospace" font-size="11.00">OwpDkim</text>
</g>
<!-- \\OwpException -->
<g id="node5" class="node"><title>\\OwpException</title>
<polygon fill="none" stroke="black" points="307.294,-494 209.294,-494 209.294,-458 307.294,-458 307.294,-494"/>
<text text-anchor="start" x="224.294" y="-479.2" font-family="Courier,monospace" font-size="11.00">«abstract»</text>
<text text-anchor="start" x="217.294" y="-467.2" font-family="Courier,monospace" font-size="11.00">OwpException</text>
</g>
<!-- \\IOwpException -->
<g id="node19" class="node"><title>\\IOwpException</title>
<polygon fill="none" stroke="black" points="120,-494 16,-494 16,-458 120,-458 120,-494"/>
<text text-anchor="middle" x="68" y="-473.2" font-family="Courier,monospace" font-size="11.00">IOwpException</text>
</g>
<!-- \\OwpException&#45;&gt;\\IOwpException -->
<g id="edge3" class="edge"><title>\\OwpException&#45;&gt;\\IOwpException</title>
<path fill="none" stroke="black" stroke-dasharray="1,5" d="M209.292,-476C185.351,-476 156.121,-476 130.55,-476"/>
<polygon fill="none" stroke="black" points="130.213,-472.5 120.213,-476 130.213,-479.5 130.213,-472.5"/>
</g>
<!-- \\Exception -->
<g id="node20" class="node"><title>\\Exception</title>
<ellipse fill="none" stroke="black" cx="68" cy="-126" rx="40.8928" ry="18"/>
<text text-anchor="middle" x="68" y="-122.3" font-family="Times,serif" font-size="14.00" fill="gray">xception</text>
</g>
<!-- \\OwpException&#45;&gt;\\Exception -->
<g id="edge2" class="edge"><title>\\OwpException&#45;&gt;\\Exception</title>
<path fill="none" stroke="black" d="M254.55,-457.742C245.473,-403.377 211.603,-240.601 120,-148 117.37,-145.341 114.367,-142.983 111.163,-140.896"/>
<polygon fill="none" stroke="black" points="112.775,-137.788 102.335,-135.982 109.37,-143.904 112.775,-137.788"/>
</g>
<!-- \\OwpEzSqlMysql -->
<g id="node6" class="node"><title>\\OwpEzSqlMysql</title>
<polygon fill="none" stroke="black" points="524.588,-736 420.588,-736 420.588,-700 524.588,-700 524.588,-736"/>
<text text-anchor="middle" x="472.588" y="-715.2" font-family="Courier,monospace" font-size="11.00">OwpEzSqlMysql</text>
</g>
<!-- \\ezSQL_mysql -->
<g id="node21" class="node"><title>\\ezSQL_mysql</title>
<ellipse fill="none" stroke="black" cx="258.294" cy="-126" rx="63.8893" ry="18"/>
<text text-anchor="middle" x="258.294" y="-122.3" font-family="Times,serif" font-size="14.00" fill="gray">\ezSQL_mysql</text>
</g>
<!-- \\OwpEzSqlMysql&#45;&gt;\\ezSQL_mysql -->
<g id="edge4" class="edge"><title>\\OwpEzSqlMysql&#45;&gt;\\ezSQL_mysql</title>
<path fill="none" stroke="black" d="M420.357,-708.062C411.271,-704.132 402.755,-698.649 396.588,-691 243.789,-501.479 479.328,-335.94 324.588,-148 322.858,-145.899 320.921,-143.998 318.825,-142.277"/>
<polygon fill="none" stroke="black" points="320.343,-139.085 310.069,-136.498 316.486,-144.928 320.343,-139.085"/>
</g>
<!-- \\OwpEzSqlMysqli -->
<g id="node7" class="node"><title>\\OwpEzSqlMysqli</title>
<polygon fill="none" stroke="black" points="528.088,-682 417.088,-682 417.088,-646 528.088,-646 528.088,-682"/>
<text text-anchor="middle" x="472.588" y="-661.2" font-family="Courier,monospace" font-size="11.00">OwpEzSqlMysqli</text>
</g>
<!-- \\ezSQL_mysqli -->
<g id="node22" class="node"><title>\\ezSQL_mysqli</title>
<ellipse fill="none" stroke="black" cx="258.294" cy="-72" rx="66.0889" ry="18"/>
<text text-anchor="middle" x="258.294" y="-68.3" font-family="Times,serif" font-size="14.00" fill="gray">\ezSQL_mysqli</text>
</g>
<!-- \\OwpEzSqlMysqli&#45;&gt;\\ezSQL_mysqli -->
<g id="edge5" class="edge"><title>\\OwpEzSqlMysqli&#45;&gt;\\ezSQL_mysqli</title>
<path fill="none" stroke="black" d="M416.94,-652.486C409.156,-648.702 401.978,-643.676 396.588,-637 245.058,-449.286 471.709,-290.19 324.588,-99 321.937,-95.5549 318.769,-92.5462 315.277,-89.9191"/>
<polygon fill="none" stroke="black" points="316.958,-86.841 306.635,-84.456 313.218,-92.7579 316.958,-86.841"/>
</g>
<!-- \\OwpFirePHP -->
<g id="node8" class="node"><title>\\OwpFirePHP</title>
<polygon fill="none" stroke="black" points="514.588,-304 430.588,-304 430.588,-268 514.588,-268 514.588,-304"/>
<text text-anchor="middle" x="472.588" y="-283.2" font-family="Courier,monospace" font-size="11.00">OwpFirePHP</text>
</g>
<!-- \\FirePHP -->
<g id="node23" class="node"><title>\\FirePHP</title>
<ellipse fill="none" stroke="black" cx="258.294" cy="-18" rx="43.5923" ry="18"/>
<text text-anchor="middle" x="258.294" y="-14.3" font-family="Times,serif" font-size="14.00" fill="gray">\FirePHP</text>
</g>
<!-- \\OwpFirePHP&#45;&gt;\\FirePHP -->
<g id="edge6" class="edge"><title>\\OwpFirePHP&#45;&gt;\\FirePHP</title>
<path fill="none" stroke="black" d="M430.432,-278.414C418.219,-274.404 405.69,-268.295 396.588,-259 326.379,-187.301 393.11,-118.314 324.588,-45 319.229,-39.2658 312.47,-34.7114 305.345,-31.1051"/>
<polygon fill="none" stroke="black" points="306.762,-27.9046 296.203,-27.0269 303.91,-34.2973 306.762,-27.9046"/>
</g>
<!-- \\OwpFramework -->
<g id="node9" class="node"><title>\\OwpFramework</title>
<polygon fill="none" stroke="black" points="521.588,-628 423.588,-628 423.588,-592 521.588,-592 521.588,-628"/>
<text text-anchor="middle" x="472.588" y="-607.2" font-family="Courier,monospace" font-size="11.00">OwpFramework</text>
</g>
<!-- \\OwpMessaging -->
<g id="node10" class="node"><title>\\OwpMessaging</title>
<polygon fill="none" stroke="black" points="521.588,-574 423.588,-574 423.588,-538 521.588,-538 521.588,-574"/>
<text text-anchor="middle" x="472.588" y="-553.2" font-family="Courier,monospace" font-size="11.00">OwpMessaging</text>
</g>
<!-- \\OwpPasswordValidator -->
<g id="node12" class="node"><title>\\OwpPasswordValidator</title>
<polygon fill="none" stroke="black" points="548.588,-520 396.588,-520 396.588,-484 548.588,-484 548.588,-520"/>
<text text-anchor="middle" x="472.588" y="-499.2" font-family="Courier,monospace" font-size="11.00">OwpPasswordValidator</text>
</g>
<!-- \\OwpSettings -->
<g id="node13" class="node"><title>\\OwpSettings</title>
<polygon fill="none" stroke="black" points="518.088,-466 427.088,-466 427.088,-430 518.088,-430 518.088,-466"/>
<text text-anchor="middle" x="472.588" y="-445.2" font-family="Courier,monospace" font-size="11.00">OwpSettings</text>
</g>
<!-- \\OwpStdObject -->
<g id="node14" class="node"><title>\\OwpStdObject</title>
<polygon fill="none" stroke="black" points="521.588,-412 423.588,-412 423.588,-376 521.588,-376 521.588,-412"/>
<text text-anchor="middle" x="472.588" y="-391.2" font-family="Courier,monospace" font-size="11.00">OwpStdObject</text>
</g>
<!-- \\OwpSupportMethods -->
<g id="node15" class="node"><title>\\OwpSupportMethods</title>
<polygon fill="none" stroke="black" points="538.088,-358 407.088,-358 407.088,-322 538.088,-322 538.088,-358"/>
<text text-anchor="middle" x="472.588" y="-337.2" font-family="Courier,monospace" font-size="11.00">OwpSupportMethods</text>
</g>
<!-- \\OwpUserException -->
<g id="node16" class="node"><title>\\OwpUserException</title>
<polygon fill="none" stroke="black" points="535.088,-790 410.088,-790 410.088,-754 535.088,-754 535.088,-790"/>
<text text-anchor="middle" x="472.588" y="-769.2" font-family="Courier,monospace" font-size="11.00">OwpUserException</text>
</g>
<!-- \\OwpUserException&#45;&gt;\\OwpException -->
<g id="edge7" class="edge"><title>\\OwpUserException&#45;&gt;\\OwpException</title>
<path fill="none" stroke="black" d="M410.009,-754.38C405.194,-751.675 400.638,-748.568 396.588,-745 320.424,-677.9 280.939,-558.45 266.214,-504.2"/>
<polygon fill="none" stroke="black" points="269.527,-503.034 263.596,-494.255 262.757,-504.816 269.527,-503.034"/>
</g>
<!-- \\OwpUsers -->
<g id="node17" class="node"><title>\\OwpUsers</title>
<polygon fill="none" stroke="black" points="508.088,-250 437.088,-250 437.088,-214 508.088,-214 508.088,-250"/>
<text text-anchor="middle" x="472.588" y="-229.2" font-family="Courier,monospace" font-size="11.00">OwpUsers</text>
</g>
<!-- \\OwpAjax -->
<g id="node18" class="node"><title>\\OwpAjax</title>
<polygon fill="none" stroke="black" points="504.588,-196 440.588,-196 440.588,-160 504.588,-160 504.588,-196"/>
<text text-anchor="middle" x="472.588" y="-175.2" font-family="Courier,monospace" font-size="11.00">OwpAjax</text>
</g>
</g>
</svg>
