<?xml version="1.0" encoding="UTF-8" standalone="no"?>
<!DOCTYPE svg PUBLIC "-//W3C//DTD SVG 1.1//EN"
 "http://www.w3.org/Graphics/SVG/1.1/DTD/svg11.dtd">
<!-- Generated by graphviz version 2.38.0 (20140413.2041)
 -->
<!-- Title: G Pages: 1 -->
<svg width="599pt" height="996pt"
 viewBox="0.00 0.00 598.59 996.00" xmlns="http://www.w3.org/2000/svg" xmlns:xlink="http://www.w3.org/1999/xlink">
<g id="graph0" class="graph" transform="scale(1 1) rotate(0) translate(4 992)">
<title>G</title>
<polygon fill="white" stroke="none" points="-4,4 -4,-992 594.586,-992 594.586,4 -4,4"/>
<g id="clust1" class="cluster"><title>cluster_Global</title>
<path fill="none" stroke="gray" d="M20,-152C20,-152 570.586,-152 570.586,-152 576.586,-152 582.586,-158 582.586,-164 582.586,-164 582.586,-968 582.586,-968 582.586,-974 576.586,-980 570.586,-980 570.586,-980 20,-980 20,-980 14,-980 8,-974 8,-968 8,-968 8,-164 8,-164 8,-158 14,-152 20,-152"/>
<text text-anchor="middle" x="295.293" y="-967.2" font-family="Times,serif" font-size="11.00" fill="gray">Global</text>
</g>
<!-- \\OwpBaseFramework -->
<g id="node1" class="node"><title>\\OwpBaseFramework</title>
<polygon fill="none" stroke="black" points="561.086,-952 436.086,-952 436.086,-916 561.086,-916 561.086,-952"/>
<text text-anchor="middle" x="498.586" y="-931.2" font-family="Courier,monospace" font-size="11.00">OwpBaseFramework</text>
</g>
<!-- \\OwpCms -->
<g id="node2" class="node"><title>\\OwpCms</title>
<polygon fill="none" stroke="black" points="527.086,-898 470.086,-898 470.086,-862 527.086,-862 527.086,-898"/>
<text text-anchor="middle" x="498.586" y="-877.2" font-family="Courier,monospace" font-size="11.00">OwpCms</text>
</g>
<!-- \\OwpDefaultMod -->
<g id="node3" class="node"><title>\\OwpDefaultMod</title>
<polygon fill="none" stroke="black" points="550.586,-844 446.586,-844 446.586,-808 550.586,-808 550.586,-844"/>
<text text-anchor="middle" x="498.586" y="-823.2" font-family="Courier,monospace" font-size="11.00">OwpDefaultMod</text>
</g>
<!-- \\OwpMod -->
<g id="node10" class="node"><title>\\OwpMod</title>
<polygon fill="none" stroke="black" points="299.793,-844 242.793,-844 242.793,-808 299.793,-808 299.793,-844"/>
<text text-anchor="middle" x="271.293" y="-823.2" font-family="Courier,monospace" font-size="11.00">OwpMod</text>
</g>
<!-- \\OwpDefaultMod&#45;&gt;\\OwpMod -->
<g id="edge1" class="edge"><title>\\OwpDefaultMod&#45;&gt;\\OwpMod</title>
<path fill="none" stroke="black" d="M446.463,-826C405.107,-826 347.79,-826 310.383,-826"/>
<polygon fill="none" stroke="black" points="309.922,-822.5 299.922,-826 309.922,-829.5 309.922,-822.5"/>
</g>
<!-- \\OwpDkim -->
<g id="node4" class="node"><title>\\OwpDkim</title>
<polygon fill="none" stroke="black" points="530.586,-790 466.586,-790 466.586,-754 530.586,-754 530.586,-790"/>
<text text-anchor="middle" x="498.586" y="-769.2" font-family="Courier,monospace" font-size="11.00">OwpDkim</text>
</g>
<!-- \\OwpException -->
<g id="node5" class="node"><title>\\OwpException</title>
<polygon fill="none" stroke="black" points="320.293,-467 222.293,-467 222.293,-431 320.293,-431 320.293,-467"/>
<text text-anchor="start" x="237.293" y="-452.2" font-family="Courier,monospace" font-size="11.00">«abstract»</text>
<text text-anchor="start" x="230.293" y="-440.2" font-family="Courier,monospace" font-size="11.00">OwpException</text>
</g>
<!-- \\IOwpException -->
<g id="node18" class="node"><title>\\IOwpException</title>
<polygon fill="none" stroke="black" points="120,-467 16,-467 16,-431 120,-431 120,-467"/>
<text text-anchor="middle" x="68" y="-446.2" font-family="Courier,monospace" font-size="11.00">IOwpException</text>
</g>
<!-- \\OwpException&#45;&gt;\\IOwpException -->
<g id="edge3" class="edge"><title>\\OwpException&#45;&gt;\\IOwpException</title>
<path fill="none" stroke="black" stroke-dasharray="1,5" d="M222.078,-449C194.611,-449 159.915,-449 130.503,-449"/>
<polygon fill="none" stroke="black" points="130.34,-445.5 120.34,-449 130.34,-452.5 130.34,-445.5"/>
</g>
<!-- \\Exception -->
<g id="node19" class="node"><title>\\Exception</title>
<ellipse fill="none" stroke="black" cx="68" cy="-126" rx="50.8918" ry="18"/>
<text text-anchor="middle" x="68" y="-122.3" font-family="Times,serif" font-size="14.00" fill="gray">xception</text>
</g>
<!-- \\OwpException&#45;&gt;\\Exception -->
<g id="edge2" class="edge"><title>\\OwpException&#45;&gt;\\Exception</title>
<path fill="none" stroke="black" d="M265.924,-430.77C252.741,-379.421 208.696,-231.876 120,-148 118.321,-146.412 116.509,-144.928 114.604,-143.544"/>
<polygon fill="none" stroke="black" points="116.125,-140.369 105.778,-138.088 112.444,-146.324 116.125,-140.369"/>
</g>
<!-- \\OwpEzSqlMysql -->
<g id="node6" class="node"><title>\\OwpEzSqlMysql</title>
<polygon fill="none" stroke="black" points="550.586,-682 446.586,-682 446.586,-646 550.586,-646 550.586,-682"/>
<text text-anchor="middle" x="498.586" y="-661.2" font-family="Courier,monospace" font-size="11.00">OwpEzSqlMysql</text>
</g>
<!-- \\ezSQL_mysql -->
<g id="node20" class="node"><title>\\ezSQL_mysql</title>
<ellipse fill="none" stroke="black" cx="271.293" cy="-126" rx="76.0865" ry="18"/>
<text text-anchor="middle" x="271.293" y="-122.3" font-family="Times,serif" font-size="14.00" fill="gray">\ezSQL_mysql</text>
</g>
<!-- \\OwpEzSqlMysql&#45;&gt;\\ezSQL_mysql -->
<g id="edge4" class="edge"><title>\\OwpEzSqlMysql&#45;&gt;\\ezSQL_mysql</title>
<path fill="none" stroke="black" d="M446.441,-653.993C437.347,-650.068 428.808,-644.605 422.586,-637 283.481,-466.978 495.689,-312.933 350.586,-148 348.531,-145.665 346.25,-143.568 343.798,-141.687"/>
<polygon fill="none" stroke="black" points="345.204,-138.437 334.873,-136.085 341.482,-144.366 345.204,-138.437"/>
</g>
<!-- \\OwpEzSqlMysqli -->
<g id="node7" class="node"><title>\\OwpEzSqlMysqli</title>
<polygon fill="none" stroke="black" points="554.086,-628 443.086,-628 443.086,-592 554.086,-592 554.086,-628"/>
<text text-anchor="middle" x="498.586" y="-607.2" font-family="Courier,monospace" font-size="11.00">OwpEzSqlMysqli</text>
</g>
<!-- \\ezSQL_mysqli -->
<g id="node21" class="node"><title>\\ezSQL_mysqli</title>
<ellipse fill="none" stroke="black" cx="271.293" cy="-72" rx="79.0865" ry="18"/>
<text text-anchor="middle" x="271.293" y="-68.3" font-family="Times,serif" font-size="14.00" fill="gray">\ezSQL_mysqli</text>
</g>
<!-- \\OwpEzSqlMysqli&#45;&gt;\\ezSQL_mysqli -->
<g id="edge5" class="edge"><title>\\OwpEzSqlMysqli&#45;&gt;\\ezSQL_mysqli</title>
<path fill="none" stroke="black" d="M443.021,-598.418C435.227,-594.642 428.024,-589.637 422.586,-583 284.748,-414.782 489.554,-266.286 350.586,-99 347.422,-95.1913 343.692,-91.9187 339.607,-89.1069"/>
<polygon fill="none" stroke="black" points="341.188,-85.9773 330.787,-83.9584 337.659,-92.0226 341.188,-85.9773"/>
</g>
<!-- \\OwpFirePHP -->
<g id="node8" class="node"><title>\\OwpFirePHP</title>
<polygon fill="none" stroke="black" points="540.586,-304 456.586,-304 456.586,-268 540.586,-268 540.586,-304"/>
<text text-anchor="middle" x="498.586" y="-283.2" font-family="Courier,monospace" font-size="11.00">OwpFirePHP</text>
</g>
<!-- \\FirePHP -->
<g id="node22" class="node"><title>\\FirePHP</title>
<ellipse fill="none" stroke="black" cx="271.293" cy="-18" rx="53.8905" ry="18"/>
<text text-anchor="middle" x="271.293" y="-14.3" font-family="Times,serif" font-size="14.00" fill="gray">\FirePHP</text>
</g>
<!-- \\OwpFirePHP&#45;&gt;\\FirePHP -->
<g id="edge6" class="edge"><title>\\OwpFirePHP&#45;&gt;\\FirePHP</title>
<path fill="none" stroke="black" d="M456.43,-278.414C444.217,-274.404 431.687,-268.295 422.586,-259 352.377,-187.301 421.276,-116.225 350.586,-45 344.404,-38.7717 336.72,-33.9785 328.602,-30.2902"/>
<polygon fill="none" stroke="black" points="329.892,-27.0369 319.307,-26.5778 327.296,-33.5375 329.892,-27.0369"/>
</g>
<!-- \\OwpMessaging -->
<g id="node9" class="node"><title>\\OwpMessaging</title>
<polygon fill="none" stroke="black" points="547.586,-574 449.586,-574 449.586,-538 547.586,-538 547.586,-574"/>
<text text-anchor="middle" x="498.586" y="-553.2" font-family="Courier,monospace" font-size="11.00">OwpMessaging</text>
</g>
<!-- \\OwpPasswordValidator -->
<g id="node11" class="node"><title>\\OwpPasswordValidator</title>
<polygon fill="none" stroke="black" points="574.586,-520 422.586,-520 422.586,-484 574.586,-484 574.586,-520"/>
<text text-anchor="middle" x="498.586" y="-499.2" font-family="Courier,monospace" font-size="11.00">OwpPasswordValidator</text>
</g>
<!-- \\OwpSettings -->
<g id="node12" class="node"><title>\\OwpSettings</title>
<polygon fill="none" stroke="black" points="544.086,-466 453.086,-466 453.086,-430 544.086,-430 544.086,-466"/>
<text text-anchor="middle" x="498.586" y="-445.2" font-family="Courier,monospace" font-size="11.00">OwpSettings</text>
</g>
<!-- \\OwpStdObject -->
<g id="node13" class="node"><title>\\OwpStdObject</title>
<polygon fill="none" stroke="black" points="547.586,-412 449.586,-412 449.586,-376 547.586,-376 547.586,-412"/>
<text text-anchor="middle" x="498.586" y="-391.2" font-family="Courier,monospace" font-size="11.00">OwpStdObject</text>
</g>
<!-- \\OwpSupportMethods -->
<g id="node14" class="node"><title>\\OwpSupportMethods</title>
<polygon fill="none" stroke="black" points="564.086,-358 433.086,-358 433.086,-322 564.086,-322 564.086,-358"/>
<text text-anchor="middle" x="498.586" y="-337.2" font-family="Courier,monospace" font-size="11.00">OwpSupportMethods</text>
</g>
<!-- \\OwpUserException -->
<g id="node15" class="node"><title>\\OwpUserException</title>
<polygon fill="none" stroke="black" points="561.086,-736 436.086,-736 436.086,-700 561.086,-700 561.086,-736"/>
<text text-anchor="middle" x="498.586" y="-715.2" font-family="Courier,monospace" font-size="11.00">OwpUserException</text>
</g>
<!-- \\OwpUserException&#45;&gt;\\OwpException -->
<g id="edge7" class="edge"><title>\\OwpUserException&#45;&gt;\\OwpException</title>
<path fill="none" stroke="black" d="M435.946,-699.804C431.201,-697.229 426.674,-694.308 422.586,-691 349.209,-631.627 301.708,-526.279 282.283,-476.505"/>
<polygon fill="none" stroke="black" points="285.506,-475.136 278.669,-467.043 278.967,-477.633 285.506,-475.136"/>
</g>
<!-- \\OwpUsers -->
<g id="node16" class="node"><title>\\OwpUsers</title>
<polygon fill="none" stroke="black" points="534.086,-250 463.086,-250 463.086,-214 534.086,-214 534.086,-250"/>
<text text-anchor="middle" x="498.586" y="-229.2" font-family="Courier,monospace" font-size="11.00">OwpUsers</text>
</g>
<!-- \\OwpAjax -->
<g id="node17" class="node"><title>\\OwpAjax</title>
<polygon fill="none" stroke="black" points="530.586,-196 466.586,-196 466.586,-160 530.586,-160 530.586,-196"/>
<text text-anchor="middle" x="498.586" y="-175.2" font-family="Courier,monospace" font-size="11.00">OwpAjax</text>
</g>
</g>
</svg>
