<?xml version="1.0" encoding="UTF-8" standalone="no"?>
<!DOCTYPE svg PUBLIC "-//W3C//DTD SVG 1.1//EN"
 "http://www.w3.org/Graphics/SVG/1.1/DTD/svg11.dtd">
<!-- Generated by graphviz version 2.38.0 (20140413.2041)
 -->
<!-- Title: G Pages: 1 -->
<svg width="386pt" height="528pt"
 viewBox="0.00 0.00 385.59 528.00" xmlns="http://www.w3.org/2000/svg" xmlns:xlink="http://www.w3.org/1999/xlink">
<g id="graph0" class="graph" transform="scale(1 1) rotate(0) translate(4 524)">
<title>G</title>
<polygon fill="white" stroke="none" points="-4,4 -4,-524 381.586,-524 381.586,4 -4,4"/>
<g id="clust1" class="cluster"><title>cluster_Global</title>
<path fill="none" stroke="gray" d="M234.586,-8C234.586,-8 357.586,-8 357.586,-8 363.586,-8 369.586,-14 369.586,-20 369.586,-20 369.586,-500 369.586,-500 369.586,-506 363.586,-512 357.586,-512 357.586,-512 234.586,-512 234.586,-512 228.586,-512 222.586,-506 222.586,-500 222.586,-500 222.586,-20 222.586,-20 222.586,-14 228.586,-8 234.586,-8"/>
<text text-anchor="middle" x="296.086" y="-499.2" font-family="Times,serif" font-size="11.00" fill="gray">Global</text>
</g>
<!-- \\OwpBaseFramework -->
<g id="node1" class="node"><title>\\OwpBaseFramework</title>
<polygon fill="none" stroke="black" points="358.586,-484 233.586,-484 233.586,-448 358.586,-448 358.586,-484"/>
<text text-anchor="middle" x="296.086" y="-463.2" font-family="Courier,monospace" font-size="11.00">OwpBaseFramework</text>
</g>
<!-- \\OwpEzSqlMysql -->
<g id="node2" class="node"><title>\\OwpEzSqlMysql</title>
<polygon fill="none" stroke="black" points="348.086,-430 244.086,-430 244.086,-394 348.086,-394 348.086,-430"/>
<text text-anchor="middle" x="296.086" y="-409.2" font-family="Courier,monospace" font-size="11.00">OwpEzSqlMysql</text>
</g>
<!-- \\ezSQL_mysql -->
<g id="node10" class="node"><title>\\ezSQL_mysql</title>
<ellipse fill="none" stroke="black" cx="79.293" cy="-412" rx="76.0865" ry="18"/>
<text text-anchor="middle" x="79.293" y="-408.3" font-family="Times,serif" font-size="14.00" fill="gray">\ezSQL_mysql</text>
</g>
<!-- \\OwpEzSqlMysql&#45;&gt;\\ezSQL_mysql -->
<g id="edge1" class="edge"><title>\\OwpEzSqlMysql&#45;&gt;\\ezSQL_mysql</title>
<path fill="none" stroke="black" d="M243.911,-412C220.475,-412 192.064,-412 165.539,-412"/>
<polygon fill="none" stroke="black" points="165.479,-408.5 155.479,-412 165.479,-415.5 165.479,-408.5"/>
</g>
<!-- \\OwpEzSqlMysqli -->
<g id="node3" class="node"><title>\\OwpEzSqlMysqli</title>
<polygon fill="none" stroke="black" points="351.586,-376 240.586,-376 240.586,-340 351.586,-340 351.586,-376"/>
<text text-anchor="middle" x="296.086" y="-355.2" font-family="Courier,monospace" font-size="11.00">OwpEzSqlMysqli</text>
</g>
<!-- \\ezSQL_mysqli -->
<g id="node11" class="node"><title>\\ezSQL_mysqli</title>
<ellipse fill="none" stroke="black" cx="79.293" cy="-358" rx="79.0865" ry="18"/>
<text text-anchor="middle" x="79.293" y="-354.3" font-family="Times,serif" font-size="14.00" fill="gray">\ezSQL_mysqli</text>
</g>
<!-- \\OwpEzSqlMysqli&#45;&gt;\\ezSQL_mysqli -->
<g id="edge2" class="edge"><title>\\OwpEzSqlMysqli&#45;&gt;\\ezSQL_mysqli</title>
<path fill="none" stroke="black" d="M240.329,-358C218.686,-358 193.255,-358 169.115,-358"/>
<polygon fill="none" stroke="black" points="168.863,-354.5 158.863,-358 168.863,-361.5 168.863,-354.5"/>
</g>
<!-- \\OwpFirePHP -->
<g id="node4" class="node"><title>\\OwpFirePHP</title>
<polygon fill="none" stroke="black" points="338.086,-322 254.086,-322 254.086,-286 338.086,-286 338.086,-322"/>
<text text-anchor="middle" x="296.086" y="-301.2" font-family="Courier,monospace" font-size="11.00">OwpFirePHP</text>
</g>
<!-- \\FirePHP -->
<g id="node12" class="node"><title>\\FirePHP</title>
<ellipse fill="none" stroke="black" cx="79.293" cy="-304" rx="53.8905" ry="18"/>
<text text-anchor="middle" x="79.293" y="-300.3" font-family="Times,serif" font-size="14.00" fill="gray">\FirePHP</text>
</g>
<!-- \\OwpFirePHP&#45;&gt;\\FirePHP -->
<g id="edge3" class="edge"><title>\\OwpFirePHP&#45;&gt;\\FirePHP</title>
<path fill="none" stroke="black" d="M253.926,-304C222.771,-304 179.417,-304 143.824,-304"/>
<polygon fill="none" stroke="black" points="143.53,-300.5 133.53,-304 143.53,-307.5 143.53,-300.5"/>
</g>
<!-- \\OwpMessaging -->
<g id="node5" class="node"><title>\\OwpMessaging</title>
<polygon fill="none" stroke="black" points="345.086,-268 247.086,-268 247.086,-232 345.086,-232 345.086,-268"/>
<text text-anchor="middle" x="296.086" y="-247.2" font-family="Courier,monospace" font-size="11.00">OwpMessaging</text>
</g>
<!-- \\OwpMod -->
<g id="node6" class="node"><title>\\OwpMod</title>
<polygon fill="none" stroke="black" points="324.586,-214 267.586,-214 267.586,-178 324.586,-178 324.586,-214"/>
<text text-anchor="middle" x="296.086" y="-193.2" font-family="Courier,monospace" font-size="11.00">OwpMod</text>
</g>
<!-- \\OwpSupportMethods -->
<g id="node7" class="node"><title>\\OwpSupportMethods</title>
<polygon fill="none" stroke="black" points="361.586,-160 230.586,-160 230.586,-124 361.586,-124 361.586,-160"/>
<text text-anchor="middle" x="296.086" y="-139.2" font-family="Courier,monospace" font-size="11.00">OwpSupportMethods</text>
</g>
<!-- \\OwpUsers -->
<g id="node8" class="node"><title>\\OwpUsers</title>
<polygon fill="none" stroke="black" points="331.586,-106 260.586,-106 260.586,-70 331.586,-70 331.586,-106"/>
<text text-anchor="middle" x="296.086" y="-85.2" font-family="Courier,monospace" font-size="11.00">OwpUsers</text>
</g>
<!-- \\OwpAjax -->
<g id="node9" class="node"><title>\\OwpAjax</title>
<polygon fill="none" stroke="black" points="328.086,-52 264.086,-52 264.086,-16 328.086,-16 328.086,-52"/>
<text text-anchor="middle" x="296.086" y="-31.2" font-family="Courier,monospace" font-size="11.00">OwpAjax</text>
</g>
</g>
</svg>
