<?xml version="1.0" encoding="UTF-8" standalone="no"?>
<!DOCTYPE svg PUBLIC "-//W3C//DTD SVG 1.1//EN"
 "http://www.w3.org/Graphics/SVG/1.1/DTD/svg11.dtd">
<!-- Generated by graphviz version 2.38.0 (20140413.2041)
 -->
<!-- Title: G Pages: 1 -->
<svg width="407pt" height="942pt"
 viewBox="0.00 0.00 406.59 942.00" xmlns="http://www.w3.org/2000/svg" xmlns:xlink="http://www.w3.org/1999/xlink">
<g id="graph0" class="graph" transform="scale(1 1) rotate(0) translate(4 938)">
<title>G</title>
<polygon fill="white" stroke="none" points="-4,4 -4,-938 402.586,-938 402.586,4 -4,4"/>
<g id="clust1" class="cluster"><title>cluster_Global</title>
<path fill="none" stroke="gray" d="M54.793,-152C54.793,-152 378.586,-152 378.586,-152 384.586,-152 390.586,-158 390.586,-164 390.586,-164 390.586,-914 390.586,-914 390.586,-920 384.586,-926 378.586,-926 378.586,-926 54.793,-926 54.793,-926 48.793,-926 42.793,-920 42.793,-914 42.793,-914 42.793,-164 42.793,-164 42.793,-158 48.793,-152 54.793,-152"/>
<text text-anchor="middle" x="216.689" y="-913.2" font-family="Times,serif" font-size="11.00" fill="gray">Global</text>
</g>
<!-- \\OwpBaseFramework -->
<g id="node1" class="node"><title>\\OwpBaseFramework</title>
<polygon fill="none" stroke="black" points="369.086,-898 244.086,-898 244.086,-862 369.086,-862 369.086,-898"/>
<text text-anchor="middle" x="306.586" y="-877.2" font-family="Courier,monospace" font-size="11.00">OwpBaseFramework</text>
</g>
<!-- \\OwpCms -->
<g id="node2" class="node"><title>\\OwpCms</title>
<polygon fill="none" stroke="black" points="335.086,-844 278.086,-844 278.086,-808 335.086,-808 335.086,-844"/>
<text text-anchor="middle" x="306.586" y="-823.2" font-family="Courier,monospace" font-size="11.00">OwpCms</text>
</g>
<!-- \\OwpDefaultMod -->
<g id="node3" class="node"><title>\\OwpDefaultMod</title>
<polygon fill="none" stroke="black" points="358.586,-790 254.586,-790 254.586,-754 358.586,-754 358.586,-790"/>
<text text-anchor="middle" x="306.586" y="-769.2" font-family="Courier,monospace" font-size="11.00">OwpDefaultMod</text>
</g>
<!-- \\OwpMod -->
<g id="node9" class="node"><title>\\OwpMod</title>
<polygon fill="none" stroke="black" points="107.793,-790 50.793,-790 50.793,-754 107.793,-754 107.793,-790"/>
<text text-anchor="middle" x="79.293" y="-769.2" font-family="Courier,monospace" font-size="11.00">OwpMod</text>
</g>
<!-- \\OwpDefaultMod&#45;&gt;\\OwpMod -->
<g id="edge1" class="edge"><title>\\OwpDefaultMod&#45;&gt;\\OwpMod</title>
<path fill="none" stroke="black" d="M254.463,-772C213.107,-772 155.79,-772 118.383,-772"/>
<polygon fill="none" stroke="black" points="117.922,-768.5 107.922,-772 117.922,-775.5 117.922,-768.5"/>
</g>
<!-- \\OwpDkim -->
<g id="node4" class="node"><title>\\OwpDkim</title>
<polygon fill="none" stroke="black" points="338.586,-736 274.586,-736 274.586,-700 338.586,-700 338.586,-736"/>
<text text-anchor="middle" x="306.586" y="-715.2" font-family="Courier,monospace" font-size="11.00">OwpDkim</text>
</g>
<!-- \\OwpEzSqlMysql -->
<g id="node5" class="node"><title>\\OwpEzSqlMysql</title>
<polygon fill="none" stroke="black" points="358.586,-682 254.586,-682 254.586,-646 358.586,-646 358.586,-682"/>
<text text-anchor="middle" x="306.586" y="-661.2" font-family="Courier,monospace" font-size="11.00">OwpEzSqlMysql</text>
</g>
<!-- \\ezSQL_mysql -->
<g id="node16" class="node"><title>\\ezSQL_mysql</title>
<ellipse fill="none" stroke="black" cx="79.293" cy="-126" rx="76.0865" ry="18"/>
<text text-anchor="middle" x="79.293" y="-122.3" font-family="Times,serif" font-size="14.00" fill="gray">\ezSQL_mysql</text>
</g>
<!-- \\OwpEzSqlMysql&#45;&gt;\\ezSQL_mysql -->
<g id="edge2" class="edge"><title>\\OwpEzSqlMysql&#45;&gt;\\ezSQL_mysql</title>
<path fill="none" stroke="black" d="M254.441,-653.993C245.347,-650.068 236.808,-644.605 230.586,-637 91.4809,-466.978 303.689,-312.933 158.586,-148 156.531,-145.665 154.25,-143.568 151.798,-141.687"/>
<polygon fill="none" stroke="black" points="153.204,-138.437 142.873,-136.085 149.482,-144.366 153.204,-138.437"/>
</g>
<!-- \\OwpEzSqlMysqli -->
<g id="node6" class="node"><title>\\OwpEzSqlMysqli</title>
<polygon fill="none" stroke="black" points="362.086,-628 251.086,-628 251.086,-592 362.086,-592 362.086,-628"/>
<text text-anchor="middle" x="306.586" y="-607.2" font-family="Courier,monospace" font-size="11.00">OwpEzSqlMysqli</text>
</g>
<!-- \\ezSQL_mysqli -->
<g id="node17" class="node"><title>\\ezSQL_mysqli</title>
<ellipse fill="none" stroke="black" cx="79.293" cy="-72" rx="79.0865" ry="18"/>
<text text-anchor="middle" x="79.293" y="-68.3" font-family="Times,serif" font-size="14.00" fill="gray">\ezSQL_mysqli</text>
</g>
<!-- \\OwpEzSqlMysqli&#45;&gt;\\ezSQL_mysqli -->
<g id="edge3" class="edge"><title>\\OwpEzSqlMysqli&#45;&gt;\\ezSQL_mysqli</title>
<path fill="none" stroke="black" d="M251.021,-598.418C243.227,-594.642 236.024,-589.637 230.586,-583 92.7477,-414.782 297.554,-266.286 158.586,-99 155.422,-95.1913 151.692,-91.9187 147.607,-89.1069"/>
<polygon fill="none" stroke="black" points="149.188,-85.9773 138.787,-83.9584 145.659,-92.0226 149.188,-85.9773"/>
</g>
<!-- \\OwpFirePHP -->
<g id="node7" class="node"><title>\\OwpFirePHP</title>
<polygon fill="none" stroke="black" points="348.586,-574 264.586,-574 264.586,-538 348.586,-538 348.586,-574"/>
<text text-anchor="middle" x="306.586" y="-553.2" font-family="Courier,monospace" font-size="11.00">OwpFirePHP</text>
</g>
<!-- \\FirePHP -->
<g id="node18" class="node"><title>\\FirePHP</title>
<ellipse fill="none" stroke="black" cx="79.293" cy="-18" rx="53.8905" ry="18"/>
<text text-anchor="middle" x="79.293" y="-14.3" font-family="Times,serif" font-size="14.00" fill="gray">\FirePHP</text>
</g>
<!-- \\OwpFirePHP&#45;&gt;\\FirePHP -->
<g id="edge4" class="edge"><title>\\OwpFirePHP&#45;&gt;\\FirePHP</title>
<path fill="none" stroke="black" d="M264.575,-549.708C251.922,-545.774 239.094,-539.383 230.586,-529 92.7477,-360.782 297.554,-212.286 158.586,-45 153.039,-38.3227 145.754,-33.2931 137.859,-29.5056"/>
<polygon fill="none" stroke="black" points="138.957,-26.1731 128.378,-25.6055 136.294,-32.6468 138.957,-26.1731"/>
</g>
<!-- \\OwpMessaging -->
<g id="node8" class="node"><title>\\OwpMessaging</title>
<polygon fill="none" stroke="black" points="355.586,-520 257.586,-520 257.586,-484 355.586,-484 355.586,-520"/>
<text text-anchor="middle" x="306.586" y="-499.2" font-family="Courier,monospace" font-size="11.00">OwpMessaging</text>
</g>
<!-- \\OwpPasswordValidator -->
<g id="node10" class="node"><title>\\OwpPasswordValidator</title>
<polygon fill="none" stroke="black" points="382.586,-466 230.586,-466 230.586,-430 382.586,-430 382.586,-466"/>
<text text-anchor="middle" x="306.586" y="-445.2" font-family="Courier,monospace" font-size="11.00">OwpPasswordValidator</text>
</g>
<!-- \\OwpSettings -->
<g id="node11" class="node"><title>\\OwpSettings</title>
<polygon fill="none" stroke="black" points="352.086,-412 261.086,-412 261.086,-376 352.086,-376 352.086,-412"/>
<text text-anchor="middle" x="306.586" y="-391.2" font-family="Courier,monospace" font-size="11.00">OwpSettings</text>
</g>
<!-- \\OwpStdObject -->
<g id="node12" class="node"><title>\\OwpStdObject</title>
<polygon fill="none" stroke="black" points="355.586,-358 257.586,-358 257.586,-322 355.586,-322 355.586,-358"/>
<text text-anchor="middle" x="306.586" y="-337.2" font-family="Courier,monospace" font-size="11.00">OwpStdObject</text>
</g>
<!-- \\OwpSupportMethods -->
<g id="node13" class="node"><title>\\OwpSupportMethods</title>
<polygon fill="none" stroke="black" points="372.086,-304 241.086,-304 241.086,-268 372.086,-268 372.086,-304"/>
<text text-anchor="middle" x="306.586" y="-283.2" font-family="Courier,monospace" font-size="11.00">OwpSupportMethods</text>
</g>
<!-- \\OwpUsers -->
<g id="node14" class="node"><title>\\OwpUsers</title>
<polygon fill="none" stroke="black" points="342.086,-250 271.086,-250 271.086,-214 342.086,-214 342.086,-250"/>
<text text-anchor="middle" x="306.586" y="-229.2" font-family="Courier,monospace" font-size="11.00">OwpUsers</text>
</g>
<!-- \\OwpAjax -->
<g id="node15" class="node"><title>\\OwpAjax</title>
<polygon fill="none" stroke="black" points="338.586,-196 274.586,-196 274.586,-160 338.586,-160 338.586,-196"/>
<text text-anchor="middle" x="306.586" y="-175.2" font-family="Courier,monospace" font-size="11.00">OwpAjax</text>
</g>
</g>
</svg>
