<?xml version="1.0" encoding="UTF-8" standalone="no"?>
<!DOCTYPE svg PUBLIC "-//W3C//DTD SVG 1.1//EN"
 "http://www.w3.org/Graphics/SVG/1.1/DTD/svg11.dtd">
<!-- Generated by graphviz version 2.38.0 (20140413.2041)
 -->
<!-- Title: G Pages: 1 -->
<svg width="381pt" height="942pt"
 viewBox="0.00 0.00 380.59 942.00" xmlns="http://www.w3.org/2000/svg" xmlns:xlink="http://www.w3.org/1999/xlink">
<g id="graph0" class="graph" transform="scale(1 1) rotate(0) translate(4 938)">
<title>G</title>
<polygon fill="white" stroke="none" points="-4,4 -4,-938 376.588,-938 376.588,4 -4,4"/>
<g id="clust1" class="cluster"><title>cluster_Global</title>
<path fill="none" stroke="gray" d="M41.7941,-152C41.7941,-152 352.588,-152 352.588,-152 358.588,-152 364.588,-158 364.588,-164 364.588,-164 364.588,-914 364.588,-914 364.588,-920 358.588,-926 352.588,-926 352.588,-926 41.7941,-926 41.7941,-926 35.7941,-926 29.7941,-920 29.7941,-914 29.7941,-914 29.7941,-164 29.7941,-164 29.7941,-158 35.7941,-152 41.7941,-152"/>
<text text-anchor="middle" x="197.191" y="-913.2" font-family="Times,serif" font-size="11.00" fill="gray">Global</text>
</g>
<!-- \\OwpBaseFramework -->
<g id="node1" class="node"><title>\\OwpBaseFramework</title>
<polygon fill="none" stroke="black" points="343.088,-898 218.088,-898 218.088,-862 343.088,-862 343.088,-898"/>
<text text-anchor="middle" x="280.588" y="-877.2" font-family="Courier,monospace" font-size="11.00">OwpBaseFramework</text>
</g>
<!-- \\OwpCms -->
<g id="node2" class="node"><title>\\OwpCms</title>
<polygon fill="none" stroke="black" points="309.088,-844 252.088,-844 252.088,-808 309.088,-808 309.088,-844"/>
<text text-anchor="middle" x="280.588" y="-823.2" font-family="Courier,monospace" font-size="11.00">OwpCms</text>
</g>
<!-- \\OwpDefaultMod -->
<g id="node3" class="node"><title>\\OwpDefaultMod</title>
<polygon fill="none" stroke="black" points="332.588,-790 228.588,-790 228.588,-754 332.588,-754 332.588,-790"/>
<text text-anchor="middle" x="280.588" y="-769.2" font-family="Courier,monospace" font-size="11.00">OwpDefaultMod</text>
</g>
<!-- \\OwpMod -->
<g id="node9" class="node"><title>\\OwpMod</title>
<polygon fill="none" stroke="black" points="94.7941,-790 37.7941,-790 37.7941,-754 94.7941,-754 94.7941,-790"/>
<text text-anchor="middle" x="66.2941" y="-769.2" font-family="Courier,monospace" font-size="11.00">OwpMod</text>
</g>
<!-- \\OwpDefaultMod&#45;&gt;\\OwpMod -->
<g id="edge1" class="edge"><title>\\OwpDefaultMod&#45;&gt;\\OwpMod</title>
<path fill="none" stroke="black" d="M228.468,-772C190.442,-772 139.392,-772 105.021,-772"/>
<polygon fill="none" stroke="black" points="104.923,-768.5 94.9228,-772 104.923,-775.5 104.923,-768.5"/>
</g>
<!-- \\OwpDkim -->
<g id="node4" class="node"><title>\\OwpDkim</title>
<polygon fill="none" stroke="black" points="312.588,-736 248.588,-736 248.588,-700 312.588,-700 312.588,-736"/>
<text text-anchor="middle" x="280.588" y="-715.2" font-family="Courier,monospace" font-size="11.00">OwpDkim</text>
</g>
<!-- \\OwpEzSqlMysql -->
<g id="node5" class="node"><title>\\OwpEzSqlMysql</title>
<polygon fill="none" stroke="black" points="332.588,-682 228.588,-682 228.588,-646 332.588,-646 332.588,-682"/>
<text text-anchor="middle" x="280.588" y="-661.2" font-family="Courier,monospace" font-size="11.00">OwpEzSqlMysql</text>
</g>
<!-- \\ezSQL_mysql -->
<g id="node16" class="node"><title>\\ezSQL_mysql</title>
<ellipse fill="none" stroke="black" cx="66.2941" cy="-126" rx="63.8893" ry="18"/>
<text text-anchor="middle" x="66.2941" y="-122.3" font-family="Times,serif" font-size="14.00" fill="gray">\ezSQL_mysql</text>
</g>
<!-- \\OwpEzSqlMysql&#45;&gt;\\ezSQL_mysql -->
<g id="edge2" class="edge"><title>\\OwpEzSqlMysql&#45;&gt;\\ezSQL_mysql</title>
<path fill="none" stroke="black" d="M228.443,-653.993C219.35,-650.068 210.81,-644.605 204.588,-637 65.4833,-466.978 273.434,-316.583 132.588,-148 130.843,-145.912 128.893,-144.021 126.788,-142.309"/>
<polygon fill="none" stroke="black" points="128.286,-139.106 118.003,-136.552 124.449,-144.961 128.286,-139.106"/>
</g>
<!-- \\OwpEzSqlMysqli -->
<g id="node6" class="node"><title>\\OwpEzSqlMysqli</title>
<polygon fill="none" stroke="black" points="336.088,-628 225.088,-628 225.088,-592 336.088,-592 336.088,-628"/>
<text text-anchor="middle" x="280.588" y="-607.2" font-family="Courier,monospace" font-size="11.00">OwpEzSqlMysqli</text>
</g>
<!-- \\ezSQL_mysqli -->
<g id="node17" class="node"><title>\\ezSQL_mysqli</title>
<ellipse fill="none" stroke="black" cx="66.2941" cy="-72" rx="66.0889" ry="18"/>
<text text-anchor="middle" x="66.2941" y="-68.3" font-family="Times,serif" font-size="14.00" fill="gray">\ezSQL_mysqli</text>
</g>
<!-- \\OwpEzSqlMysqli&#45;&gt;\\ezSQL_mysqli -->
<g id="edge3" class="edge"><title>\\OwpEzSqlMysqli&#45;&gt;\\ezSQL_mysqli</title>
<path fill="none" stroke="black" d="M225.024,-598.418C217.229,-594.642 210.026,-589.637 204.588,-583 66.75,-414.782 266.475,-270.38 132.588,-99 129.912,-95.5744 126.726,-92.5798 123.221,-89.9625"/>
<polygon fill="none" stroke="black" points="124.888,-86.8758 114.559,-84.5151 121.161,-92.8015 124.888,-86.8758"/>
</g>
<!-- \\OwpFirePHP -->
<g id="node7" class="node"><title>\\OwpFirePHP</title>
<polygon fill="none" stroke="black" points="322.588,-574 238.588,-574 238.588,-538 322.588,-538 322.588,-574"/>
<text text-anchor="middle" x="280.588" y="-553.2" font-family="Courier,monospace" font-size="11.00">OwpFirePHP</text>
</g>
<!-- \\FirePHP -->
<g id="node18" class="node"><title>\\FirePHP</title>
<ellipse fill="none" stroke="black" cx="66.2941" cy="-18" rx="43.5923" ry="18"/>
<text text-anchor="middle" x="66.2941" y="-14.3" font-family="Times,serif" font-size="14.00" fill="gray">\FirePHP</text>
</g>
<!-- \\OwpFirePHP&#45;&gt;\\FirePHP -->
<g id="edge4" class="edge"><title>\\OwpFirePHP&#45;&gt;\\FirePHP</title>
<path fill="none" stroke="black" d="M238.578,-549.708C225.924,-545.774 213.096,-539.383 204.588,-529 66.75,-360.782 266.475,-216.38 132.588,-45 127.864,-38.9523 121.549,-34.248 114.703,-30.5917"/>
<polygon fill="none" stroke="black" points="115.689,-27.1944 105.138,-26.2276 112.783,-33.5629 115.689,-27.1944"/>
</g>
<!-- \\OwpMessaging -->
<g id="node8" class="node"><title>\\OwpMessaging</title>
<polygon fill="none" stroke="black" points="329.588,-520 231.588,-520 231.588,-484 329.588,-484 329.588,-520"/>
<text text-anchor="middle" x="280.588" y="-499.2" font-family="Courier,monospace" font-size="11.00">OwpMessaging</text>
</g>
<!-- \\OwpPasswordValidator -->
<g id="node10" class="node"><title>\\OwpPasswordValidator</title>
<polygon fill="none" stroke="black" points="356.588,-466 204.588,-466 204.588,-430 356.588,-430 356.588,-466"/>
<text text-anchor="middle" x="280.588" y="-445.2" font-family="Courier,monospace" font-size="11.00">OwpPasswordValidator</text>
</g>
<!-- \\OwpSettings -->
<g id="node11" class="node"><title>\\OwpSettings</title>
<polygon fill="none" stroke="black" points="326.088,-412 235.088,-412 235.088,-376 326.088,-376 326.088,-412"/>
<text text-anchor="middle" x="280.588" y="-391.2" font-family="Courier,monospace" font-size="11.00">OwpSettings</text>
</g>
<!-- \\OwpStdObject -->
<g id="node12" class="node"><title>\\OwpStdObject</title>
<polygon fill="none" stroke="black" points="329.588,-358 231.588,-358 231.588,-322 329.588,-322 329.588,-358"/>
<text text-anchor="middle" x="280.588" y="-337.2" font-family="Courier,monospace" font-size="11.00">OwpStdObject</text>
</g>
<!-- \\OwpSupportMethods -->
<g id="node13" class="node"><title>\\OwpSupportMethods</title>
<polygon fill="none" stroke="black" points="346.088,-304 215.088,-304 215.088,-268 346.088,-268 346.088,-304"/>
<text text-anchor="middle" x="280.588" y="-283.2" font-family="Courier,monospace" font-size="11.00">OwpSupportMethods</text>
</g>
<!-- \\OwpUsers -->
<g id="node14" class="node"><title>\\OwpUsers</title>
<polygon fill="none" stroke="black" points="316.088,-250 245.088,-250 245.088,-214 316.088,-214 316.088,-250"/>
<text text-anchor="middle" x="280.588" y="-229.2" font-family="Courier,monospace" font-size="11.00">OwpUsers</text>
</g>
<!-- \\OwpAjax -->
<g id="node15" class="node"><title>\\OwpAjax</title>
<polygon fill="none" stroke="black" points="312.588,-196 248.588,-196 248.588,-160 312.588,-160 312.588,-196"/>
<text text-anchor="middle" x="280.588" y="-175.2" font-family="Courier,monospace" font-size="11.00">OwpAjax</text>
</g>
</g>
</svg>
