<?xml version="1.0" encoding="UTF-8" standalone="no"?>
<!DOCTYPE svg PUBLIC "-//W3C//DTD SVG 1.1//EN"
 "http://www.w3.org/Graphics/SVG/1.1/DTD/svg11.dtd">
<!-- Generated by graphviz version 2.38.0 (20140413.2041)
 -->
<!-- Title: G Pages: 1 -->
<svg width="567pt" height="942pt"
 viewBox="0.00 0.00 567.39 942.00" xmlns="http://www.w3.org/2000/svg" xmlns:xlink="http://www.w3.org/1999/xlink">
<g id="graph0" class="graph" transform="scale(1 1) rotate(0) translate(4 938)">
<title>G</title>
<polygon fill="white" stroke="none" points="-4,4 -4,-938 563.389,-938 563.389,4 -4,4"/>
<g id="clust1" class="cluster"><title>cluster_Global</title>
<path fill="none" stroke="gray" d="M20,-44C20,-44 539.389,-44 539.389,-44 545.389,-44 551.389,-50 551.389,-56 551.389,-56 551.389,-914 551.389,-914 551.389,-920 545.389,-926 539.389,-926 539.389,-926 20,-926 20,-926 14,-926 8,-920 8,-914 8,-914 8,-56 8,-56 8,-50 14,-44 20,-44"/>
<text text-anchor="middle" x="279.694" y="-913.2" font-family="Times,serif" font-size="11.00" fill="gray">Global</text>
</g>
<!-- \\OwpBaseFramework -->
<g id="node1" class="node"><title>\\OwpBaseFramework</title>
<polygon fill="none" stroke="black" points="529.889,-898 404.889,-898 404.889,-862 529.889,-862 529.889,-898"/>
<text text-anchor="middle" x="467.389" y="-877.2" font-family="Courier,monospace" font-size="11.00">OwpBaseFramework</text>
</g>
<!-- \\OwpCms -->
<g id="node2" class="node"><title>\\OwpCms</title>
<polygon fill="none" stroke="black" points="495.889,-844 438.889,-844 438.889,-808 495.889,-808 495.889,-844"/>
<text text-anchor="middle" x="467.389" y="-823.2" font-family="Courier,monospace" font-size="11.00">OwpCms</text>
</g>
<!-- \\OwpConfig -->
<g id="node3" class="node"><title>\\OwpConfig</title>
<polygon fill="none" stroke="black" points="505.889,-790 428.889,-790 428.889,-754 505.889,-754 505.889,-790"/>
<text text-anchor="middle" x="467.389" y="-769.2" font-family="Courier,monospace" font-size="11.00">OwpConfig</text>
</g>
<!-- \\OwpDefaultMod -->
<g id="node4" class="node"><title>\\OwpDefaultMod</title>
<polygon fill="none" stroke="black" points="519.389,-736 415.389,-736 415.389,-700 519.389,-700 519.389,-736"/>
<text text-anchor="middle" x="467.389" y="-715.2" font-family="Courier,monospace" font-size="11.00">OwpDefaultMod</text>
</g>
<!-- \\OwpMod -->
<g id="node10" class="node"><title>\\OwpMod</title>
<polygon fill="none" stroke="black" points="284.194,-736 227.194,-736 227.194,-700 284.194,-700 284.194,-736"/>
<text text-anchor="middle" x="255.694" y="-715.2" font-family="Courier,monospace" font-size="11.00">OwpMod</text>
</g>
<!-- \\OwpDefaultMod&#45;&gt;\\OwpMod -->
<g id="edge1" class="edge"><title>\\OwpDefaultMod&#45;&gt;\\OwpMod</title>
<path fill="none" stroke="black" d="M415.36,-718C378.167,-718 328.577,-718 294.801,-718"/>
<polygon fill="none" stroke="black" points="294.427,-714.5 284.427,-718 294.427,-721.5 294.427,-714.5"/>
</g>
<!-- \\OwpDkim -->
<g id="node5" class="node"><title>\\OwpDkim</title>
<polygon fill="none" stroke="black" points="499.389,-682 435.389,-682 435.389,-646 499.389,-646 499.389,-682"/>
<text text-anchor="middle" x="467.389" y="-661.2" font-family="Courier,monospace" font-size="11.00">OwpDkim</text>
</g>
<!-- \\OwpException -->
<g id="node6" class="node"><title>\\OwpException</title>
<polygon fill="none" stroke="black" points="304.694,-359 206.694,-359 206.694,-323 304.694,-323 304.694,-359"/>
<text text-anchor="start" x="221.694" y="-344.2" font-family="Courier,monospace" font-size="11.00">«abstract»</text>
<text text-anchor="start" x="214.694" y="-332.2" font-family="Courier,monospace" font-size="11.00">OwpException</text>
</g>
<!-- \\IOwpException -->
<g id="node19" class="node"><title>\\IOwpException</title>
<polygon fill="none" stroke="black" points="120,-359 16,-359 16,-323 120,-323 120,-359"/>
<text text-anchor="middle" x="68" y="-338.2" font-family="Courier,monospace" font-size="11.00">IOwpException</text>
</g>
<!-- \\OwpException&#45;&gt;\\IOwpException -->
<g id="edge3" class="edge"><title>\\OwpException&#45;&gt;\\IOwpException</title>
<path fill="none" stroke="black" stroke-dasharray="1,5" d="M206.39,-341C183.156,-341 155.044,-341 130.318,-341"/>
<polygon fill="none" stroke="black" points="130.312,-337.5 120.312,-341 130.312,-344.5 130.312,-337.5"/>
</g>
<!-- \\Exception -->
<g id="node20" class="node"><title>\\Exception</title>
<ellipse fill="none" stroke="black" cx="68" cy="-18" rx="40.8928" ry="18"/>
<text text-anchor="middle" x="68" y="-14.3" font-family="Times,serif" font-size="14.00" fill="gray">xception</text>
</g>
<!-- \\OwpException&#45;&gt;\\Exception -->
<g id="edge2" class="edge"><title>\\OwpException&#45;&gt;\\Exception</title>
<path fill="none" stroke="black" d="M251.354,-322.786C241.052,-271.479 205.177,-124.034 120,-40 117.338,-37.3736 114.312,-35.0381 111.093,-32.9656"/>
<polygon fill="none" stroke="black" points="112.688,-29.8476 102.242,-28.0747 109.302,-35.9745 112.688,-29.8476"/>
</g>
<!-- \\OwpEzSqlMysql -->
<g id="node7" class="node"><title>\\OwpEzSqlMysql</title>
<polygon fill="none" stroke="black" points="519.389,-196 415.389,-196 415.389,-160 519.389,-160 519.389,-196"/>
<text text-anchor="middle" x="467.389" y="-175.2" font-family="Courier,monospace" font-size="11.00">OwpEzSqlMysql</text>
</g>
<!-- \\ezSQL_mysql -->
<g id="node21" class="node"><title>\\ezSQL_mysql</title>
<ellipse fill="none" stroke="black" cx="255.694" cy="-18" rx="63.8893" ry="18"/>
<text text-anchor="middle" x="255.694" y="-14.3" font-family="Times,serif" font-size="14.00" fill="gray">\ezSQL_mysql</text>
</g>
<!-- \\OwpEzSqlMysql&#45;&gt;\\ezSQL_mysql -->
<g id="edge4" class="edge"><title>\\OwpEzSqlMysql&#45;&gt;\\ezSQL_mysql</title>
<path fill="none" stroke="black" d="M415.209,-164.672C406.741,-161.081 398.437,-156.589 391.389,-151 345.315,-114.463 365.61,-76.3509 319.389,-40 317.094,-38.195 314.639,-36.5319 312.08,-35.0002"/>
<polygon fill="none" stroke="black" points="313.536,-31.8118 303.051,-30.2839 310.294,-38.0163 313.536,-31.8118"/>
</g>
<!-- \\OwpFramework -->
<g id="node8" class="node"><title>\\OwpFramework</title>
<polygon fill="none" stroke="black" points="516.389,-574 418.389,-574 418.389,-538 516.389,-538 516.389,-574"/>
<text text-anchor="middle" x="467.389" y="-553.2" font-family="Courier,monospace" font-size="11.00">OwpFramework</text>
</g>
<!-- \\OwpMessaging -->
<g id="node9" class="node"><title>\\OwpMessaging</title>
<polygon fill="none" stroke="black" points="516.389,-520 418.389,-520 418.389,-484 516.389,-484 516.389,-520"/>
<text text-anchor="middle" x="467.389" y="-499.2" font-family="Courier,monospace" font-size="11.00">OwpMessaging</text>
</g>
<!-- \\OwpPasswordValidator -->
<g id="node11" class="node"><title>\\OwpPasswordValidator</title>
<polygon fill="none" stroke="black" points="543.389,-466 391.389,-466 391.389,-430 543.389,-430 543.389,-466"/>
<text text-anchor="middle" x="467.389" y="-445.2" font-family="Courier,monospace" font-size="11.00">OwpPasswordValidator</text>
</g>
<!-- \\OwpPostmark -->
<g id="node12" class="node"><title>\\OwpPostmark</title>
<polygon fill="none" stroke="black" points="512.889,-412 421.889,-412 421.889,-376 512.889,-376 512.889,-412"/>
<text text-anchor="middle" x="467.389" y="-391.2" font-family="Courier,monospace" font-size="11.00">OwpPostmark</text>
</g>
<!-- \\OwpSettings -->
<g id="node13" class="node"><title>\\OwpSettings</title>
<polygon fill="none" stroke="black" points="512.889,-358 421.889,-358 421.889,-322 512.889,-322 512.889,-358"/>
<text text-anchor="middle" x="467.389" y="-337.2" font-family="Courier,monospace" font-size="11.00">OwpSettings</text>
</g>
<!-- \\OwpStdObject -->
<g id="node14" class="node"><title>\\OwpStdObject</title>
<polygon fill="none" stroke="black" points="516.389,-304 418.389,-304 418.389,-268 516.389,-268 516.389,-304"/>
<text text-anchor="middle" x="467.389" y="-283.2" font-family="Courier,monospace" font-size="11.00">OwpStdObject</text>
</g>
<!-- \\OwpSupportMethods -->
<g id="node15" class="node"><title>\\OwpSupportMethods</title>
<polygon fill="none" stroke="black" points="532.889,-250 401.889,-250 401.889,-214 532.889,-214 532.889,-250"/>
<text text-anchor="middle" x="467.389" y="-229.2" font-family="Courier,monospace" font-size="11.00">OwpSupportMethods</text>
</g>
<!-- \\OwpUserException -->
<g id="node16" class="node"><title>\\OwpUserException</title>
<polygon fill="none" stroke="black" points="529.889,-628 404.889,-628 404.889,-592 529.889,-592 529.889,-628"/>
<text text-anchor="middle" x="467.389" y="-607.2" font-family="Courier,monospace" font-size="11.00">OwpUserException</text>
</g>
<!-- \\OwpUserException&#45;&gt;\\OwpException -->
<g id="edge5" class="edge"><title>\\OwpUserException&#45;&gt;\\OwpException</title>
<path fill="none" stroke="black" d="M404.574,-592.015C399.867,-589.394 395.396,-586.405 391.389,-583 321.598,-523.709 281.1,-418.698 264.937,-368.81"/>
<polygon fill="none" stroke="black" points="268.201,-367.522 261.856,-359.037 261.525,-369.627 268.201,-367.522"/>
</g>
<!-- \\OwpUsers -->
<g id="node17" class="node"><title>\\OwpUsers</title>
<polygon fill="none" stroke="black" points="502.889,-142 431.889,-142 431.889,-106 502.889,-106 502.889,-142"/>
<text text-anchor="middle" x="467.389" y="-121.2" font-family="Courier,monospace" font-size="11.00">OwpUsers</text>
</g>
<!-- \\OwpAjax -->
<g id="node18" class="node"><title>\\OwpAjax</title>
<polygon fill="none" stroke="black" points="499.389,-88 435.389,-88 435.389,-52 499.389,-52 499.389,-88"/>
<text text-anchor="middle" x="467.389" y="-67.2" font-family="Courier,monospace" font-size="11.00">OwpAjax</text>
</g>
</g>
</svg>
