<?xml version="1.0" encoding="UTF-8" standalone="no"?>
<!DOCTYPE svg PUBLIC "-//W3C//DTD SVG 1.1//EN"
 "http://www.w3.org/Graphics/SVG/1.1/DTD/svg11.dtd">
<!-- Generated by graphviz version 2.38.0 (20140413.2041)
 -->
<!-- Title: G Pages: 1 -->
<svg width="599pt" height="1050pt"
 viewBox="0.00 0.00 598.59 1050.00" xmlns="http://www.w3.org/2000/svg" xmlns:xlink="http://www.w3.org/1999/xlink">
<g id="graph0" class="graph" transform="scale(1 1) rotate(0) translate(4 1046)">
<title>G</title>
<polygon fill="white" stroke="none" points="-4,4 -4,-1046 594.586,-1046 594.586,4 -4,4"/>
<g id="clust1" class="cluster"><title>cluster_Global</title>
<path fill="none" stroke="gray" d="M20,-152C20,-152 570.586,-152 570.586,-152 576.586,-152 582.586,-158 582.586,-164 582.586,-164 582.586,-1022 582.586,-1022 582.586,-1028 576.586,-1034 570.586,-1034 570.586,-1034 20,-1034 20,-1034 14,-1034 8,-1028 8,-1022 8,-1022 8,-164 8,-164 8,-158 14,-152 20,-152"/>
<text text-anchor="middle" x="295.293" y="-1021.2" font-family="Times,serif" font-size="11.00" fill="gray">Global</text>
</g>
<!-- \\OwpBaseFramework -->
<g id="node1" class="node"><title>\\OwpBaseFramework</title>
<polygon fill="none" stroke="black" points="561.086,-1006 436.086,-1006 436.086,-970 561.086,-970 561.086,-1006"/>
<text text-anchor="middle" x="498.586" y="-985.2" font-family="Courier,monospace" font-size="11.00">OwpBaseFramework</text>
</g>
<!-- \\OwpCms -->
<g id="node2" class="node"><title>\\OwpCms</title>
<polygon fill="none" stroke="black" points="527.086,-952 470.086,-952 470.086,-916 527.086,-916 527.086,-952"/>
<text text-anchor="middle" x="498.586" y="-931.2" font-family="Courier,monospace" font-size="11.00">OwpCms</text>
</g>
<!-- \\OwpDefaultMod -->
<g id="node3" class="node"><title>\\OwpDefaultMod</title>
<polygon fill="none" stroke="black" points="550.586,-898 446.586,-898 446.586,-862 550.586,-862 550.586,-898"/>
<text text-anchor="middle" x="498.586" y="-877.2" font-family="Courier,monospace" font-size="11.00">OwpDefaultMod</text>
</g>
<!-- \\OwpMod -->
<g id="node11" class="node"><title>\\OwpMod</title>
<polygon fill="none" stroke="black" points="299.793,-898 242.793,-898 242.793,-862 299.793,-862 299.793,-898"/>
<text text-anchor="middle" x="271.293" y="-877.2" font-family="Courier,monospace" font-size="11.00">OwpMod</text>
</g>
<!-- \\OwpDefaultMod&#45;&gt;\\OwpMod -->
<g id="edge1" class="edge"><title>\\OwpDefaultMod&#45;&gt;\\OwpMod</title>
<path fill="none" stroke="black" d="M446.463,-880C405.107,-880 347.79,-880 310.383,-880"/>
<polygon fill="none" stroke="black" points="309.922,-876.5 299.922,-880 309.922,-883.5 309.922,-876.5"/>
</g>
<!-- \\OwpDkim -->
<g id="node4" class="node"><title>\\OwpDkim</title>
<polygon fill="none" stroke="black" points="530.586,-844 466.586,-844 466.586,-808 530.586,-808 530.586,-844"/>
<text text-anchor="middle" x="498.586" y="-823.2" font-family="Courier,monospace" font-size="11.00">OwpDkim</text>
</g>
<!-- \\OwpException -->
<g id="node5" class="node"><title>\\OwpException</title>
<polygon fill="none" stroke="black" points="320.293,-494 222.293,-494 222.293,-458 320.293,-458 320.293,-494"/>
<text text-anchor="start" x="237.293" y="-479.2" font-family="Courier,monospace" font-size="11.00">«abstract»</text>
<text text-anchor="start" x="230.293" y="-467.2" font-family="Courier,monospace" font-size="11.00">OwpException</text>
</g>
<!-- \\IOwpException -->
<g id="node19" class="node"><title>\\IOwpException</title>
<polygon fill="none" stroke="black" points="120,-494 16,-494 16,-458 120,-458 120,-494"/>
<text text-anchor="middle" x="68" y="-473.2" font-family="Courier,monospace" font-size="11.00">IOwpException</text>
</g>
<!-- \\OwpException&#45;&gt;\\IOwpException -->
<g id="edge3" class="edge"><title>\\OwpException&#45;&gt;\\IOwpException</title>
<path fill="none" stroke="black" stroke-dasharray="1,5" d="M222.078,-476C194.611,-476 159.915,-476 130.503,-476"/>
<polygon fill="none" stroke="black" points="130.34,-472.5 120.34,-476 130.34,-479.5 130.34,-472.5"/>
</g>
<!-- \\Exception -->
<g id="node20" class="node"><title>\\Exception</title>
<ellipse fill="none" stroke="black" cx="68" cy="-126" rx="50.8918" ry="18"/>
<text text-anchor="middle" x="68" y="-122.3" font-family="Times,serif" font-size="14.00" fill="gray">xception</text>
</g>
<!-- \\OwpException&#45;&gt;\\Exception -->
<g id="edge2" class="edge"><title>\\OwpException&#45;&gt;\\Exception</title>
<path fill="none" stroke="black" d="M266.753,-457.724C255.321,-403.308 214.496,-240.402 120,-148 118.347,-146.384 116.557,-144.878 114.67,-143.475"/>
<polygon fill="none" stroke="black" points="116.226,-140.319 105.895,-137.967 112.504,-146.248 116.226,-140.319"/>
</g>
<!-- \\OwpEzSqlMysql -->
<g id="node6" class="node"><title>\\OwpEzSqlMysql</title>
<polygon fill="none" stroke="black" points="550.586,-736 446.586,-736 446.586,-700 550.586,-700 550.586,-736"/>
<text text-anchor="middle" x="498.586" y="-715.2" font-family="Courier,monospace" font-size="11.00">OwpEzSqlMysql</text>
</g>
<!-- \\ezSQL_mysql -->
<g id="node21" class="node"><title>\\ezSQL_mysql</title>
<ellipse fill="none" stroke="black" cx="271.293" cy="-126" rx="76.0865" ry="18"/>
<text text-anchor="middle" x="271.293" y="-122.3" font-family="Times,serif" font-size="14.00" fill="gray">\ezSQL_mysql</text>
</g>
<!-- \\OwpEzSqlMysql&#45;&gt;\\ezSQL_mysql -->
<g id="edge4" class="edge"><title>\\OwpEzSqlMysql&#45;&gt;\\ezSQL_mysql</title>
<path fill="none" stroke="black" d="M446.355,-708.062C437.268,-704.132 428.753,-698.649 422.586,-691 269.787,-501.479 510.073,-331.928 350.586,-148 348.548,-145.65 346.281,-143.541 343.84,-141.65"/>
<polygon fill="none" stroke="black" points="345.267,-138.412 334.945,-136.023 341.525,-144.327 345.267,-138.412"/>
</g>
<!-- \\OwpEzSqlMysqli -->
<g id="node7" class="node"><title>\\OwpEzSqlMysqli</title>
<polygon fill="none" stroke="black" points="554.086,-682 443.086,-682 443.086,-646 554.086,-646 554.086,-682"/>
<text text-anchor="middle" x="498.586" y="-661.2" font-family="Courier,monospace" font-size="11.00">OwpEzSqlMysqli</text>
</g>
<!-- \\ezSQL_mysqli -->
<g id="node22" class="node"><title>\\ezSQL_mysqli</title>
<ellipse fill="none" stroke="black" cx="271.293" cy="-72" rx="79.0865" ry="18"/>
<text text-anchor="middle" x="271.293" y="-68.3" font-family="Times,serif" font-size="14.00" fill="gray">\ezSQL_mysqli</text>
</g>
<!-- \\OwpEzSqlMysqli&#45;&gt;\\ezSQL_mysqli -->
<g id="edge5" class="edge"><title>\\OwpEzSqlMysqli&#45;&gt;\\ezSQL_mysqli</title>
<path fill="none" stroke="black" d="M442.937,-652.486C435.153,-648.702 427.975,-643.676 422.586,-637 271.056,-449.286 503.377,-285.69 350.586,-99 347.45,-95.1682 343.741,-91.8788 339.67,-89.0551"/>
<polygon fill="none" stroke="black" points="341.267,-85.9345 330.872,-83.8887 337.723,-91.9706 341.267,-85.9345"/>
</g>
<!-- \\OwpFirePHP -->
<g id="node8" class="node"><title>\\OwpFirePHP</title>
<polygon fill="none" stroke="black" points="540.586,-304 456.586,-304 456.586,-268 540.586,-268 540.586,-304"/>
<text text-anchor="middle" x="498.586" y="-283.2" font-family="Courier,monospace" font-size="11.00">OwpFirePHP</text>
</g>
<!-- \\FirePHP -->
<g id="node23" class="node"><title>\\FirePHP</title>
<ellipse fill="none" stroke="black" cx="271.293" cy="-18" rx="53.8905" ry="18"/>
<text text-anchor="middle" x="271.293" y="-14.3" font-family="Times,serif" font-size="14.00" fill="gray">\FirePHP</text>
</g>
<!-- \\OwpFirePHP&#45;&gt;\\FirePHP -->
<g id="edge6" class="edge"><title>\\OwpFirePHP&#45;&gt;\\FirePHP</title>
<path fill="none" stroke="black" d="M456.43,-278.414C444.217,-274.404 431.687,-268.295 422.586,-259 352.377,-187.301 421.276,-116.225 350.586,-45 344.404,-38.7717 336.72,-33.9785 328.602,-30.2902"/>
<polygon fill="none" stroke="black" points="329.892,-27.0369 319.307,-26.5778 327.296,-33.5375 329.892,-27.0369"/>
</g>
<!-- \\OwpFramework -->
<g id="node9" class="node"><title>\\OwpFramework</title>
<polygon fill="none" stroke="black" points="547.586,-628 449.586,-628 449.586,-592 547.586,-592 547.586,-628"/>
<text text-anchor="middle" x="498.586" y="-607.2" font-family="Courier,monospace" font-size="11.00">OwpFramework</text>
</g>
<!-- \\OwpMessaging -->
<g id="node10" class="node"><title>\\OwpMessaging</title>
<polygon fill="none" stroke="black" points="547.586,-574 449.586,-574 449.586,-538 547.586,-538 547.586,-574"/>
<text text-anchor="middle" x="498.586" y="-553.2" font-family="Courier,monospace" font-size="11.00">OwpMessaging</text>
</g>
<!-- \\OwpPasswordValidator -->
<g id="node12" class="node"><title>\\OwpPasswordValidator</title>
<polygon fill="none" stroke="black" points="574.586,-520 422.586,-520 422.586,-484 574.586,-484 574.586,-520"/>
<text text-anchor="middle" x="498.586" y="-499.2" font-family="Courier,monospace" font-size="11.00">OwpPasswordValidator</text>
</g>
<!-- \\OwpSettings -->
<g id="node13" class="node"><title>\\OwpSettings</title>
<polygon fill="none" stroke="black" points="544.086,-466 453.086,-466 453.086,-430 544.086,-430 544.086,-466"/>
<text text-anchor="middle" x="498.586" y="-445.2" font-family="Courier,monospace" font-size="11.00">OwpSettings</text>
</g>
<!-- \\OwpStdObject -->
<g id="node14" class="node"><title>\\OwpStdObject</title>
<polygon fill="none" stroke="black" points="547.586,-412 449.586,-412 449.586,-376 547.586,-376 547.586,-412"/>
<text text-anchor="middle" x="498.586" y="-391.2" font-family="Courier,monospace" font-size="11.00">OwpStdObject</text>
</g>
<!-- \\OwpSupportMethods -->
<g id="node15" class="node"><title>\\OwpSupportMethods</title>
<polygon fill="none" stroke="black" points="564.086,-358 433.086,-358 433.086,-322 564.086,-322 564.086,-358"/>
<text text-anchor="middle" x="498.586" y="-337.2" font-family="Courier,monospace" font-size="11.00">OwpSupportMethods</text>
</g>
<!-- \\OwpUserException -->
<g id="node16" class="node"><title>\\OwpUserException</title>
<polygon fill="none" stroke="black" points="561.086,-790 436.086,-790 436.086,-754 561.086,-754 561.086,-790"/>
<text text-anchor="middle" x="498.586" y="-769.2" font-family="Courier,monospace" font-size="11.00">OwpUserException</text>
</g>
<!-- \\OwpUserException&#45;&gt;\\OwpException -->
<g id="edge7" class="edge"><title>\\OwpUserException&#45;&gt;\\OwpException</title>
<path fill="none" stroke="black" d="M435.778,-754.008C431.069,-751.388 426.596,-748.402 422.586,-745 343.439,-677.871 297.94,-558.006 280.543,-503.882"/>
<polygon fill="none" stroke="black" points="283.86,-502.762 277.528,-494.268 277.181,-504.857 283.86,-502.762"/>
</g>
<!-- \\OwpUsers -->
<g id="node17" class="node"><title>\\OwpUsers</title>
<polygon fill="none" stroke="black" points="534.086,-250 463.086,-250 463.086,-214 534.086,-214 534.086,-250"/>
<text text-anchor="middle" x="498.586" y="-229.2" font-family="Courier,monospace" font-size="11.00">OwpUsers</text>
</g>
<!-- \\OwpAjax -->
<g id="node18" class="node"><title>\\OwpAjax</title>
<polygon fill="none" stroke="black" points="530.586,-196 466.586,-196 466.586,-160 530.586,-160 530.586,-196"/>
<text text-anchor="middle" x="498.586" y="-175.2" font-family="Courier,monospace" font-size="11.00">OwpAjax</text>
</g>
</g>
</svg>
