<?xml version="1.0" encoding="UTF-8" standalone="no"?>
<!DOCTYPE svg PUBLIC "-//W3C//DTD SVG 1.1//EN"
 "http://www.w3.org/Graphics/SVG/1.1/DTD/svg11.dtd">
<!-- Generated by graphviz version 2.38.0 (20140413.2041)
 -->
<!-- Title: G Pages: 1 -->
<svg width="386pt" height="366pt"
 viewBox="0.00 0.00 385.59 366.00" xmlns="http://www.w3.org/2000/svg" xmlns:xlink="http://www.w3.org/1999/xlink">
<g id="graph0" class="graph" transform="scale(1 1) rotate(0) translate(4 362)">
<title>G</title>
<polygon fill="white" stroke="none" points="-4,4 -4,-362 381.586,-362 381.586,4 -4,4"/>
<g id="clust1" class="cluster"><title>cluster_Global</title>
<path fill="none" stroke="gray" d="M234.586,-8C234.586,-8 357.586,-8 357.586,-8 363.586,-8 369.586,-14 369.586,-20 369.586,-20 369.586,-338 369.586,-338 369.586,-344 363.586,-350 357.586,-350 357.586,-350 234.586,-350 234.586,-350 228.586,-350 222.586,-344 222.586,-338 222.586,-338 222.586,-20 222.586,-20 222.586,-14 228.586,-8 234.586,-8"/>
<text text-anchor="middle" x="296.086" y="-337.2" font-family="Times,serif" font-size="11.00" fill="gray">Global</text>
</g>
<!-- \\OwpBaseFramework -->
<g id="node1" class="node"><title>\\OwpBaseFramework</title>
<polygon fill="none" stroke="black" points="358.586,-322 233.586,-322 233.586,-286 358.586,-286 358.586,-322"/>
<text text-anchor="middle" x="296.086" y="-301.2" font-family="Courier,monospace" font-size="11.00">OwpBaseFramework</text>
</g>
<!-- \\OwpEzSqlMysql -->
<g id="node2" class="node"><title>\\OwpEzSqlMysql</title>
<polygon fill="none" stroke="black" points="348.086,-268 244.086,-268 244.086,-232 348.086,-232 348.086,-268"/>
<text text-anchor="middle" x="296.086" y="-247.2" font-family="Courier,monospace" font-size="11.00">OwpEzSqlMysql</text>
</g>
<!-- \\ezSQL_mysql -->
<g id="node7" class="node"><title>\\ezSQL_mysql</title>
<ellipse fill="none" stroke="black" cx="79.293" cy="-250" rx="76.0865" ry="18"/>
<text text-anchor="middle" x="79.293" y="-246.3" font-family="Times,serif" font-size="14.00" fill="gray">\ezSQL_mysql</text>
</g>
<!-- \\OwpEzSqlMysql&#45;&gt;\\ezSQL_mysql -->
<g id="edge1" class="edge"><title>\\OwpEzSqlMysql&#45;&gt;\\ezSQL_mysql</title>
<path fill="none" stroke="black" d="M243.911,-250C220.475,-250 192.064,-250 165.539,-250"/>
<polygon fill="none" stroke="black" points="165.479,-246.5 155.479,-250 165.479,-253.5 165.479,-246.5"/>
</g>
<!-- \\OwpEzSqlMysqli -->
<g id="node3" class="node"><title>\\OwpEzSqlMysqli</title>
<polygon fill="none" stroke="black" points="351.586,-214 240.586,-214 240.586,-178 351.586,-178 351.586,-214"/>
<text text-anchor="middle" x="296.086" y="-193.2" font-family="Courier,monospace" font-size="11.00">OwpEzSqlMysqli</text>
</g>
<!-- \\ezSQL_mysqli -->
<g id="node8" class="node"><title>\\ezSQL_mysqli</title>
<ellipse fill="none" stroke="black" cx="79.293" cy="-196" rx="79.0865" ry="18"/>
<text text-anchor="middle" x="79.293" y="-192.3" font-family="Times,serif" font-size="14.00" fill="gray">\ezSQL_mysqli</text>
</g>
<!-- \\OwpEzSqlMysqli&#45;&gt;\\ezSQL_mysqli -->
<g id="edge2" class="edge"><title>\\OwpEzSqlMysqli&#45;&gt;\\ezSQL_mysqli</title>
<path fill="none" stroke="black" d="M240.329,-196C218.686,-196 193.255,-196 169.115,-196"/>
<polygon fill="none" stroke="black" points="168.863,-192.5 158.863,-196 168.863,-199.5 168.863,-192.5"/>
</g>
<!-- \\OwpMessaging -->
<g id="node4" class="node"><title>\\OwpMessaging</title>
<polygon fill="none" stroke="black" points="345.086,-160 247.086,-160 247.086,-124 345.086,-124 345.086,-160"/>
<text text-anchor="middle" x="296.086" y="-139.2" font-family="Courier,monospace" font-size="11.00">OwpMessaging</text>
</g>
<!-- \\OwpMod -->
<g id="node5" class="node"><title>\\OwpMod</title>
<polygon fill="none" stroke="black" points="324.586,-106 267.586,-106 267.586,-70 324.586,-70 324.586,-106"/>
<text text-anchor="middle" x="296.086" y="-85.2" font-family="Courier,monospace" font-size="11.00">OwpMod</text>
</g>
<!-- \\OwpSupportMethods -->
<g id="node6" class="node"><title>\\OwpSupportMethods</title>
<polygon fill="none" stroke="black" points="361.586,-52 230.586,-52 230.586,-16 361.586,-16 361.586,-52"/>
<text text-anchor="middle" x="296.086" y="-31.2" font-family="Courier,monospace" font-size="11.00">OwpSupportMethods</text>
</g>
</g>
</svg>
