<?xml version="1.0" encoding="UTF-8" standalone="no"?>
<!DOCTYPE svg PUBLIC "-//W3C//DTD SVG 1.1//EN"
 "http://www.w3.org/Graphics/SVG/1.1/DTD/svg11.dtd">
<!-- Generated by graphviz version 2.38.0 (20140413.2041)
 -->
<!-- Title: G Pages: 1 -->
<svg width="538pt" height="996pt"
 viewBox="0.00 0.00 538.00 996.00" xmlns="http://www.w3.org/2000/svg" xmlns:xlink="http://www.w3.org/1999/xlink">
<g id="graph0" class="graph" transform="scale(1 1) rotate(0) translate(4 992)">
<title>G</title>
<polygon fill="white" stroke="none" points="-4,4 -4,-992 534,-992 534,4 -4,4"/>
<g id="clust1" class="cluster"><title>cluster_Global</title>
<path fill="none" stroke="gray" d="M20,-44C20,-44 510,-44 510,-44 516,-44 522,-50 522,-56 522,-56 522,-968 522,-968 522,-974 516,-980 510,-980 510,-980 20,-980 20,-980 14,-980 8,-974 8,-968 8,-968 8,-56 8,-56 8,-50 14,-44 20,-44"/>
<text text-anchor="middle" x="265" y="-967.2" font-family="Times,serif" font-size="11.00" fill="gray">Global</text>
</g>
<!-- \\OwpSupportMethods -->
<g id="node1" class="node"><title>\\OwpSupportMethods</title>
<polygon fill="none" stroke="black" points="503.5,-952 372.5,-952 372.5,-916 503.5,-916 503.5,-952"/>
<text text-anchor="middle" x="438" y="-931.2" font-family="Courier,monospace" font-size="11.00">OwpSupportMethods</text>
</g>
<!-- \\OwpStdObject -->
<g id="node2" class="node"><title>\\OwpStdObject</title>
<polygon fill="none" stroke="black" points="487,-898 389,-898 389,-862 487,-862 487,-898"/>
<text text-anchor="middle" x="438" y="-877.2" font-family="Courier,monospace" font-size="11.00">OwpStdObject</text>
</g>
<!-- \\OwpDBMySQLi -->
<g id="node3" class="node"><title>\\OwpDBMySQLi</title>
<polygon fill="none" stroke="black" points="286.5,-628 195.5,-628 195.5,-592 286.5,-592 286.5,-628"/>
<text text-anchor="middle" x="241" y="-607.2" font-family="Courier,monospace" font-size="11.00">OwpDBMySQLi</text>
</g>
<!-- \\OwpDb -->
<g id="node4" class="node"><title>\\OwpDb</title>
<polygon fill="none" stroke="black" points="465,-844 411,-844 411,-808 465,-808 465,-844"/>
<text text-anchor="middle" x="438" y="-823.2" font-family="Courier,monospace" font-size="11.00">OwpDb</text>
</g>
<!-- \\OwpConfig -->
<g id="node5" class="node"><title>\\OwpConfig</title>
<polygon fill="none" stroke="black" points="476.5,-790 399.5,-790 399.5,-754 476.5,-754 476.5,-790"/>
<text text-anchor="middle" x="438" y="-769.2" font-family="Courier,monospace" font-size="11.00">OwpConfig</text>
</g>
<!-- \\OwpCms -->
<g id="node6" class="node"><title>\\OwpCms</title>
<polygon fill="none" stroke="black" points="466.5,-736 409.5,-736 409.5,-700 466.5,-700 466.5,-736"/>
<text text-anchor="middle" x="438" y="-715.2" font-family="Courier,monospace" font-size="11.00">OwpCms</text>
</g>
<!-- \\OwpSettings -->
<g id="node7" class="node"><title>\\OwpSettings</title>
<polygon fill="none" stroke="black" points="483.5,-682 392.5,-682 392.5,-646 483.5,-646 483.5,-682"/>
<text text-anchor="middle" x="438" y="-661.2" font-family="Courier,monospace" font-size="11.00">OwpSettings</text>
</g>
<!-- \\OwpEzSqlMysql -->
<g id="node8" class="node"><title>\\OwpEzSqlMysql</title>
<polygon fill="none" stroke="black" points="490,-628 386,-628 386,-592 490,-592 490,-628"/>
<text text-anchor="middle" x="438" y="-607.2" font-family="Courier,monospace" font-size="11.00">OwpEzSqlMysql</text>
</g>
<!-- \\OwpEzSqlMysql&#45;&gt;\\OwpDBMySQLi -->
<g id="edge1" class="edge"><title>\\OwpEzSqlMysql&#45;&gt;\\OwpDBMySQLi</title>
<path fill="none" stroke="black" d="M385.766,-610C358.33,-610 324.53,-610 296.598,-610"/>
<polygon fill="none" stroke="black" points="296.596,-606.5 286.596,-610 296.596,-613.5 296.596,-606.5"/>
</g>
<!-- \\OwpFramework -->
<g id="node9" class="node"><title>\\OwpFramework</title>
<polygon fill="none" stroke="black" points="487,-574 389,-574 389,-538 487,-538 487,-574"/>
<text text-anchor="middle" x="438" y="-553.2" font-family="Courier,monospace" font-size="11.00">OwpFramework</text>
</g>
<!-- \\OwpUserException -->
<g id="node10" class="node"><title>\\OwpUserException</title>
<polygon fill="none" stroke="black" points="500.5,-520 375.5,-520 375.5,-484 500.5,-484 500.5,-520"/>
<text text-anchor="middle" x="438" y="-499.2" font-family="Courier,monospace" font-size="11.00">OwpUserException</text>
</g>
<!-- \\OwpException -->
<g id="node14" class="node"><title>\\OwpException</title>
<polygon fill="none" stroke="black" points="290,-439 192,-439 192,-403 290,-403 290,-439"/>
<text text-anchor="start" x="207" y="-424.2" font-family="Courier,monospace" font-size="11.00">«abstract»</text>
<text text-anchor="start" x="200" y="-412.2" font-family="Courier,monospace" font-size="11.00">OwpException</text>
</g>
<!-- \\OwpUserException&#45;&gt;\\OwpException -->
<g id="edge2" class="edge"><title>\\OwpUserException&#45;&gt;\\OwpException</title>
<path fill="none" stroke="black" d="M385.159,-483.929C377.361,-481.04 369.441,-478.009 362,-475 337.722,-465.185 311.128,-453.333 289.158,-443.236"/>
<polygon fill="none" stroke="black" points="290.592,-440.043 280.046,-439.028 287.657,-446.398 290.592,-440.043"/>
</g>
<!-- \\OwpUsers -->
<g id="node11" class="node"><title>\\OwpUsers</title>
<polygon fill="none" stroke="black" points="473.5,-466 402.5,-466 402.5,-430 473.5,-430 473.5,-466"/>
<text text-anchor="middle" x="438" y="-445.2" font-family="Courier,monospace" font-size="11.00">OwpUsers</text>
</g>
<!-- \\OwpBaseFramework -->
<g id="node12" class="node"><title>\\OwpBaseFramework</title>
<polygon fill="none" stroke="black" points="500.5,-412 375.5,-412 375.5,-376 500.5,-376 500.5,-412"/>
<text text-anchor="middle" x="438" y="-391.2" font-family="Courier,monospace" font-size="11.00">OwpBaseFramework</text>
</g>
<!-- \\OwpPostmark -->
<g id="node13" class="node"><title>\\OwpPostmark</title>
<polygon fill="none" stroke="black" points="483.5,-358 392.5,-358 392.5,-322 483.5,-322 483.5,-358"/>
<text text-anchor="middle" x="438" y="-337.2" font-family="Courier,monospace" font-size="11.00">OwpPostmark</text>
</g>
<!-- \\IOwpException -->
<g id="node21" class="node"><title>\\IOwpException</title>
<polygon fill="none" stroke="black" points="120,-439 16,-439 16,-403 120,-403 120,-439"/>
<text text-anchor="middle" x="68" y="-418.2" font-family="Courier,monospace" font-size="11.00">IOwpException</text>
</g>
<!-- \\OwpException&#45;&gt;\\IOwpException -->
<g id="edge4" class="edge"><title>\\OwpException&#45;&gt;\\IOwpException</title>
<path fill="none" stroke="black" stroke-dasharray="1,5" d="M191.912,-421C172.729,-421 150.416,-421 130.107,-421"/>
<polygon fill="none" stroke="black" points="130.01,-417.5 120.01,-421 130.01,-424.5 130.01,-417.5"/>
</g>
<!-- \\Exception -->
<g id="node22" class="node"><title>\\Exception</title>
<ellipse fill="none" stroke="black" cx="68" cy="-18" rx="40.8928" ry="18"/>
<text text-anchor="middle" x="68" y="-14.3" font-family="Times,serif" font-size="14.00" fill="gray">xception</text>
</g>
<!-- \\OwpException&#45;&gt;\\Exception -->
<g id="edge3" class="edge"><title>\\OwpException&#45;&gt;\\Exception</title>
<path fill="none" stroke="black" d="M230.75,-402.637C220.328,-381.437 203.364,-345.327 192,-313 150.385,-194.619 201.86,-135.103 120,-40 117.56,-37.1657 114.69,-34.6853 111.574,-32.5166"/>
<polygon fill="none" stroke="black" points="113.29,-29.4659 102.884,-27.4748 109.777,-35.5206 113.29,-29.4659"/>
</g>
<!-- \\OwpDefaultMod -->
<g id="node15" class="node"><title>\\OwpDefaultMod</title>
<polygon fill="none" stroke="black" points="490,-304 386,-304 386,-268 490,-268 490,-304"/>
<text text-anchor="middle" x="438" y="-283.2" font-family="Courier,monospace" font-size="11.00">OwpDefaultMod</text>
</g>
<!-- \\OwpMod -->
<g id="node18" class="node"><title>\\OwpMod</title>
<polygon fill="none" stroke="black" points="269.5,-304 212.5,-304 212.5,-268 269.5,-268 269.5,-304"/>
<text text-anchor="middle" x="241" y="-283.2" font-family="Courier,monospace" font-size="11.00">OwpMod</text>
</g>
<!-- \\OwpDefaultMod&#45;&gt;\\OwpMod -->
<g id="edge5" class="edge"><title>\\OwpDefaultMod&#45;&gt;\\OwpMod</title>
<path fill="none" stroke="black" d="M385.766,-286C352.557,-286 310.024,-286 279.86,-286"/>
<polygon fill="none" stroke="black" points="279.741,-282.5 269.741,-286 279.741,-289.5 279.741,-282.5"/>
</g>
<!-- \\OwpMessaging -->
<g id="node16" class="node"><title>\\OwpMessaging</title>
<polygon fill="none" stroke="black" points="487,-250 389,-250 389,-214 487,-214 487,-250"/>
<text text-anchor="middle" x="438" y="-229.2" font-family="Courier,monospace" font-size="11.00">OwpMessaging</text>
</g>
<!-- \\OwpDkim -->
<g id="node17" class="node"><title>\\OwpDkim</title>
<polygon fill="none" stroke="black" points="470,-196 406,-196 406,-160 470,-160 470,-196"/>
<text text-anchor="middle" x="438" y="-175.2" font-family="Courier,monospace" font-size="11.00">OwpDkim</text>
</g>
<!-- \\OwpPasswordValidator -->
<g id="node19" class="node"><title>\\OwpPasswordValidator</title>
<polygon fill="none" stroke="black" points="514,-142 362,-142 362,-106 514,-106 514,-142"/>
<text text-anchor="middle" x="438" y="-121.2" font-family="Courier,monospace" font-size="11.00">OwpPasswordValidator</text>
</g>
<!-- \\OwpAjax -->
<g id="node20" class="node"><title>\\OwpAjax</title>
<polygon fill="none" stroke="black" points="470,-88 406,-88 406,-52 470,-52 470,-88"/>
<text text-anchor="middle" x="438" y="-67.2" font-family="Courier,monospace" font-size="11.00">OwpAjax</text>
</g>
</g>
</svg>
