<?xml version="1.0" encoding="UTF-8" standalone="no"?>
<!DOCTYPE svg PUBLIC "-//W3C//DTD SVG 1.1//EN"
 "http://www.w3.org/Graphics/SVG/1.1/DTD/svg11.dtd">
<!-- Generated by graphviz version 2.38.0 (20140413.2041)
 -->
<!-- Title: G Pages: 1 -->
<svg width="573pt" height="996pt"
 viewBox="0.00 0.00 572.59 996.00" xmlns="http://www.w3.org/2000/svg" xmlns:xlink="http://www.w3.org/1999/xlink">
<g id="graph0" class="graph" transform="scale(1 1) rotate(0) translate(4 992)">
<title>G</title>
<polygon fill="white" stroke="none" points="-4,4 -4,-992 568.588,-992 568.588,4 -4,4"/>
<g id="clust1" class="cluster"><title>cluster_Global</title>
<path fill="none" stroke="gray" d="M20,-44C20,-44 544.588,-44 544.588,-44 550.588,-44 556.588,-50 556.588,-56 556.588,-56 556.588,-968 556.588,-968 556.588,-974 550.588,-980 544.588,-980 544.588,-980 20,-980 20,-980 14,-980 8,-974 8,-968 8,-968 8,-56 8,-56 8,-50 14,-44 20,-44"/>
<text text-anchor="middle" x="282.294" y="-967.2" font-family="Times,serif" font-size="11.00" fill="gray">Global</text>
</g>
<!-- \\OwpSupportMethods -->
<g id="node1" class="node"><title>\\OwpSupportMethods</title>
<polygon fill="none" stroke="black" points="538.088,-952 407.088,-952 407.088,-916 538.088,-916 538.088,-952"/>
<text text-anchor="middle" x="472.588" y="-931.2" font-family="Courier,monospace" font-size="11.00">OwpSupportMethods</text>
</g>
<!-- \\OwpStdObject -->
<g id="node2" class="node"><title>\\OwpStdObject</title>
<polygon fill="none" stroke="black" points="521.588,-898 423.588,-898 423.588,-862 521.588,-862 521.588,-898"/>
<text text-anchor="middle" x="472.588" y="-877.2" font-family="Courier,monospace" font-size="11.00">OwpStdObject</text>
</g>
<!-- \\OwpDb -->
<g id="node3" class="node"><title>\\OwpDb</title>
<polygon fill="none" stroke="black" points="499.588,-844 445.588,-844 445.588,-808 499.588,-808 499.588,-844"/>
<text text-anchor="middle" x="472.588" y="-823.2" font-family="Courier,monospace" font-size="11.00">OwpDb</text>
</g>
<!-- \\OwpConfig -->
<g id="node4" class="node"><title>\\OwpConfig</title>
<polygon fill="none" stroke="black" points="511.088,-790 434.088,-790 434.088,-754 511.088,-754 511.088,-790"/>
<text text-anchor="middle" x="472.588" y="-769.2" font-family="Courier,monospace" font-size="11.00">OwpConfig</text>
</g>
<!-- \\OwpCms -->
<g id="node5" class="node"><title>\\OwpCms</title>
<polygon fill="none" stroke="black" points="501.088,-736 444.088,-736 444.088,-700 501.088,-700 501.088,-736"/>
<text text-anchor="middle" x="472.588" y="-715.2" font-family="Courier,monospace" font-size="11.00">OwpCms</text>
</g>
<!-- \\OwpSettings -->
<g id="node6" class="node"><title>\\OwpSettings</title>
<polygon fill="none" stroke="black" points="518.088,-682 427.088,-682 427.088,-646 518.088,-646 518.088,-682"/>
<text text-anchor="middle" x="472.588" y="-661.2" font-family="Courier,monospace" font-size="11.00">OwpSettings</text>
</g>
<!-- \\OwpEzSqlMysql -->
<g id="node7" class="node"><title>\\OwpEzSqlMysql</title>
<polygon fill="none" stroke="black" points="524.588,-304 420.588,-304 420.588,-268 524.588,-268 524.588,-304"/>
<text text-anchor="middle" x="472.588" y="-283.2" font-family="Courier,monospace" font-size="11.00">OwpEzSqlMysql</text>
</g>
<!-- \\ezSQL_mysqli -->
<g id="node21" class="node"><title>\\ezSQL_mysqli</title>
<ellipse fill="none" stroke="black" cx="258.294" cy="-18" rx="66.0889" ry="18"/>
<text text-anchor="middle" x="258.294" y="-14.3" font-family="Times,serif" font-size="14.00" fill="gray">\ezSQL_mysqli</text>
</g>
<!-- \\OwpEzSqlMysql&#45;&gt;\\ezSQL_mysqli -->
<g id="edge1" class="edge"><title>\\OwpEzSqlMysql&#45;&gt;\\ezSQL_mysqli</title>
<path fill="none" stroke="black" d="M420.267,-274.618C411.516,-270.814 403.149,-265.746 396.588,-259 325.157,-185.546 396.771,-112.715 324.588,-40 322.745,-38.1429 320.74,-36.4426 318.614,-34.8858"/>
<polygon fill="none" stroke="black" points="320.262,-31.7912 309.904,-29.5645 316.613,-37.7646 320.262,-31.7912"/>
</g>
<!-- \\OwpFramework -->
<g id="node8" class="node"><title>\\OwpFramework</title>
<polygon fill="none" stroke="black" points="521.588,-574 423.588,-574 423.588,-538 521.588,-538 521.588,-574"/>
<text text-anchor="middle" x="472.588" y="-553.2" font-family="Courier,monospace" font-size="11.00">OwpFramework</text>
</g>
<!-- \\OwpUserException -->
<g id="node9" class="node"><title>\\OwpUserException</title>
<polygon fill="none" stroke="black" points="535.088,-628 410.088,-628 410.088,-592 535.088,-592 535.088,-628"/>
<text text-anchor="middle" x="472.588" y="-607.2" font-family="Courier,monospace" font-size="11.00">OwpUserException</text>
</g>
<!-- \\OwpException -->
<g id="node13" class="node"><title>\\OwpException</title>
<polygon fill="none" stroke="black" points="307.294,-601 209.294,-601 209.294,-565 307.294,-565 307.294,-601"/>
<text text-anchor="start" x="224.294" y="-586.2" font-family="Courier,monospace" font-size="11.00">«abstract»</text>
<text text-anchor="start" x="217.294" y="-574.2" font-family="Courier,monospace" font-size="11.00">OwpException</text>
</g>
<!-- \\OwpUserException&#45;&gt;\\OwpException -->
<g id="edge2" class="edge"><title>\\OwpUserException&#45;&gt;\\OwpException</title>
<path fill="none" stroke="black" d="M409.899,-602.154C380.896,-598.466 346.489,-594.09 317.888,-590.452"/>
<polygon fill="none" stroke="black" points="317.996,-586.938 307.634,-589.148 317.112,-593.882 317.996,-586.938"/>
</g>
<!-- \\OwpUsers -->
<g id="node10" class="node"><title>\\OwpUsers</title>
<polygon fill="none" stroke="black" points="508.088,-466 437.088,-466 437.088,-430 508.088,-430 508.088,-466"/>
<text text-anchor="middle" x="472.588" y="-445.2" font-family="Courier,monospace" font-size="11.00">OwpUsers</text>
</g>
<!-- \\OwpBaseFramework -->
<g id="node11" class="node"><title>\\OwpBaseFramework</title>
<polygon fill="none" stroke="black" points="535.088,-412 410.088,-412 410.088,-376 535.088,-376 535.088,-412"/>
<text text-anchor="middle" x="472.588" y="-391.2" font-family="Courier,monospace" font-size="11.00">OwpBaseFramework</text>
</g>
<!-- \\OwpPostmark -->
<g id="node12" class="node"><title>\\OwpPostmark</title>
<polygon fill="none" stroke="black" points="518.088,-358 427.088,-358 427.088,-322 518.088,-322 518.088,-358"/>
<text text-anchor="middle" x="472.588" y="-337.2" font-family="Courier,monospace" font-size="11.00">OwpPostmark</text>
</g>
<!-- \\IOwpException -->
<g id="node20" class="node"><title>\\IOwpException</title>
<polygon fill="none" stroke="black" points="120,-601 16,-601 16,-565 120,-565 120,-601"/>
<text text-anchor="middle" x="68" y="-580.2" font-family="Courier,monospace" font-size="11.00">IOwpException</text>
</g>
<!-- \\OwpException&#45;&gt;\\IOwpException -->
<g id="edge4" class="edge"><title>\\OwpException&#45;&gt;\\IOwpException</title>
<path fill="none" stroke="black" stroke-dasharray="1,5" d="M209.292,-583C185.351,-583 156.121,-583 130.55,-583"/>
<polygon fill="none" stroke="black" points="130.213,-579.5 120.213,-583 130.213,-586.5 130.213,-579.5"/>
</g>
<!-- \\Exception -->
<g id="node22" class="node"><title>\\Exception</title>
<ellipse fill="none" stroke="black" cx="68" cy="-18" rx="40.8928" ry="18"/>
<text text-anchor="middle" x="68" y="-14.3" font-family="Times,serif" font-size="14.00" fill="gray">xception</text>
</g>
<!-- \\OwpException&#45;&gt;\\Exception -->
<g id="edge3" class="edge"><title>\\OwpException&#45;&gt;\\Exception</title>
<path fill="none" stroke="black" d="M226.571,-564.833C213.836,-555.701 200.158,-543.483 192,-529 84.1861,-337.6 253.794,-214.232 120,-40 117.789,-37.1212 115.126,-34.6134 112.191,-32.4297"/>
<polygon fill="none" stroke="black" points="113.722,-29.2652 103.352,-27.0946 110.105,-35.2583 113.722,-29.2652"/>
</g>
<!-- \\OwpDefaultMod -->
<g id="node14" class="node"><title>\\OwpDefaultMod</title>
<polygon fill="none" stroke="black" points="524.588,-520 420.588,-520 420.588,-484 524.588,-484 524.588,-520"/>
<text text-anchor="middle" x="472.588" y="-499.2" font-family="Courier,monospace" font-size="11.00">OwpDefaultMod</text>
</g>
<!-- \\OwpMod -->
<g id="node17" class="node"><title>\\OwpMod</title>
<polygon fill="none" stroke="black" points="286.794,-520 229.794,-520 229.794,-484 286.794,-484 286.794,-520"/>
<text text-anchor="middle" x="258.294" y="-499.2" font-family="Courier,monospace" font-size="11.00">OwpMod</text>
</g>
<!-- \\OwpDefaultMod&#45;&gt;\\OwpMod -->
<g id="edge5" class="edge"><title>\\OwpDefaultMod&#45;&gt;\\OwpMod</title>
<path fill="none" stroke="black" d="M420.468,-502C382.442,-502 331.392,-502 297.021,-502"/>
<polygon fill="none" stroke="black" points="296.923,-498.5 286.923,-502 296.923,-505.5 296.923,-498.5"/>
</g>
<!-- \\OwpMessaging -->
<g id="node15" class="node"><title>\\OwpMessaging</title>
<polygon fill="none" stroke="black" points="521.588,-250 423.588,-250 423.588,-214 521.588,-214 521.588,-250"/>
<text text-anchor="middle" x="472.588" y="-229.2" font-family="Courier,monospace" font-size="11.00">OwpMessaging</text>
</g>
<!-- \\OwpDkim -->
<g id="node16" class="node"><title>\\OwpDkim</title>
<polygon fill="none" stroke="black" points="504.588,-196 440.588,-196 440.588,-160 504.588,-160 504.588,-196"/>
<text text-anchor="middle" x="472.588" y="-175.2" font-family="Courier,monospace" font-size="11.00">OwpDkim</text>
</g>
<!-- \\OwpPasswordValidator -->
<g id="node18" class="node"><title>\\OwpPasswordValidator</title>
<polygon fill="none" stroke="black" points="548.588,-142 396.588,-142 396.588,-106 548.588,-106 548.588,-142"/>
<text text-anchor="middle" x="472.588" y="-121.2" font-family="Courier,monospace" font-size="11.00">OwpPasswordValidator</text>
</g>
<!-- \\OwpAjax -->
<g id="node19" class="node"><title>\\OwpAjax</title>
<polygon fill="none" stroke="black" points="504.588,-88 440.588,-88 440.588,-52 504.588,-52 504.588,-88"/>
<text text-anchor="middle" x="472.588" y="-67.2" font-family="Courier,monospace" font-size="11.00">OwpAjax</text>
</g>
</g>
</svg>
