<?xml version="1.0" encoding="UTF-8" standalone="no"?>
<!DOCTYPE svg PUBLIC "-//W3C//DTD SVG 1.1//EN"
 "http://www.w3.org/Graphics/SVG/1.1/DTD/svg11.dtd">
<!-- Generated by graphviz version 2.38.0 (20140413.2041)
 -->
<!-- Title: G Pages: 1 -->
<svg width="573pt" height="1050pt"
 viewBox="0.00 0.00 572.59 1050.00" xmlns="http://www.w3.org/2000/svg" xmlns:xlink="http://www.w3.org/1999/xlink">
<g id="graph0" class="graph" transform="scale(1 1) rotate(0) translate(4 1046)">
<title>G</title>
<polygon fill="white" stroke="none" points="-4,4 -4,-1046 568.588,-1046 568.588,4 -4,4"/>
<g id="clust1" class="cluster"><title>cluster_Global</title>
<path fill="none" stroke="gray" d="M20,-98C20,-98 544.588,-98 544.588,-98 550.588,-98 556.588,-104 556.588,-110 556.588,-110 556.588,-1022 556.588,-1022 556.588,-1028 550.588,-1034 544.588,-1034 544.588,-1034 20,-1034 20,-1034 14,-1034 8,-1028 8,-1022 8,-1022 8,-110 8,-110 8,-104 14,-98 20,-98"/>
<text text-anchor="middle" x="282.294" y="-1021.2" font-family="Times,serif" font-size="11.00" fill="gray">Global</text>
</g>
<!-- \\OwpBaseFramework -->
<g id="node1" class="node"><title>\\OwpBaseFramework</title>
<polygon fill="none" stroke="black" points="535.088,-1006 410.088,-1006 410.088,-970 535.088,-970 535.088,-1006"/>
<text text-anchor="middle" x="472.588" y="-985.2" font-family="Courier,monospace" font-size="11.00">OwpBaseFramework</text>
</g>
<!-- \\OwpCms -->
<g id="node2" class="node"><title>\\OwpCms</title>
<polygon fill="none" stroke="black" points="501.088,-952 444.088,-952 444.088,-916 501.088,-916 501.088,-952"/>
<text text-anchor="middle" x="472.588" y="-931.2" font-family="Courier,monospace" font-size="11.00">OwpCms</text>
</g>
<!-- \\OwpConfig -->
<g id="node3" class="node"><title>\\OwpConfig</title>
<polygon fill="none" stroke="black" points="511.088,-898 434.088,-898 434.088,-862 511.088,-862 511.088,-898"/>
<text text-anchor="middle" x="472.588" y="-877.2" font-family="Courier,monospace" font-size="11.00">OwpConfig</text>
</g>
<!-- \\OwpDefaultMod -->
<g id="node4" class="node"><title>\\OwpDefaultMod</title>
<polygon fill="none" stroke="black" points="524.588,-844 420.588,-844 420.588,-808 524.588,-808 524.588,-844"/>
<text text-anchor="middle" x="472.588" y="-823.2" font-family="Courier,monospace" font-size="11.00">OwpDefaultMod</text>
</g>
<!-- \\OwpMod -->
<g id="node11" class="node"><title>\\OwpMod</title>
<polygon fill="none" stroke="black" points="286.794,-844 229.794,-844 229.794,-808 286.794,-808 286.794,-844"/>
<text text-anchor="middle" x="258.294" y="-823.2" font-family="Courier,monospace" font-size="11.00">OwpMod</text>
</g>
<!-- \\OwpDefaultMod&#45;&gt;\\OwpMod -->
<g id="edge1" class="edge"><title>\\OwpDefaultMod&#45;&gt;\\OwpMod</title>
<path fill="none" stroke="black" d="M420.468,-826C382.442,-826 331.392,-826 297.021,-826"/>
<polygon fill="none" stroke="black" points="296.923,-822.5 286.923,-826 296.923,-829.5 296.923,-822.5"/>
</g>
<!-- \\OwpDkim -->
<g id="node5" class="node"><title>\\OwpDkim</title>
<polygon fill="none" stroke="black" points="504.588,-790 440.588,-790 440.588,-754 504.588,-754 504.588,-790"/>
<text text-anchor="middle" x="472.588" y="-769.2" font-family="Courier,monospace" font-size="11.00">OwpDkim</text>
</g>
<!-- \\OwpException -->
<g id="node6" class="node"><title>\\OwpException</title>
<polygon fill="none" stroke="black" points="307.294,-440 209.294,-440 209.294,-404 307.294,-404 307.294,-440"/>
<text text-anchor="start" x="224.294" y="-425.2" font-family="Courier,monospace" font-size="11.00">«abstract»</text>
<text text-anchor="start" x="217.294" y="-413.2" font-family="Courier,monospace" font-size="11.00">OwpException</text>
</g>
<!-- \\IOwpException -->
<g id="node20" class="node"><title>\\IOwpException</title>
<polygon fill="none" stroke="black" points="120,-440 16,-440 16,-404 120,-404 120,-440"/>
<text text-anchor="middle" x="68" y="-419.2" font-family="Courier,monospace" font-size="11.00">IOwpException</text>
</g>
<!-- \\OwpException&#45;&gt;\\IOwpException -->
<g id="edge3" class="edge"><title>\\OwpException&#45;&gt;\\IOwpException</title>
<path fill="none" stroke="black" stroke-dasharray="1,5" d="M209.292,-422C185.351,-422 156.121,-422 130.55,-422"/>
<polygon fill="none" stroke="black" points="130.213,-418.5 120.213,-422 130.213,-425.5 130.213,-418.5"/>
</g>
<!-- \\Exception -->
<g id="node21" class="node"><title>\\Exception</title>
<ellipse fill="none" stroke="black" cx="68" cy="-72" rx="40.8928" ry="18"/>
<text text-anchor="middle" x="68" y="-68.3" font-family="Times,serif" font-size="14.00" fill="gray">xception</text>
</g>
<!-- \\OwpException&#45;&gt;\\Exception -->
<g id="edge2" class="edge"><title>\\OwpException&#45;&gt;\\Exception</title>
<path fill="none" stroke="black" d="M254.55,-403.742C245.473,-349.377 211.603,-186.601 120,-94 117.37,-91.3414 114.367,-88.9834 111.163,-86.896"/>
<polygon fill="none" stroke="black" points="112.775,-83.7875 102.335,-81.9817 109.37,-89.9037 112.775,-83.7875"/>
</g>
<!-- \\OwpEzSqlMysql -->
<g id="node7" class="node"><title>\\OwpEzSqlMysql</title>
<polygon fill="none" stroke="black" points="524.588,-682 420.588,-682 420.588,-646 524.588,-646 524.588,-682"/>
<text text-anchor="middle" x="472.588" y="-661.2" font-family="Courier,monospace" font-size="11.00">OwpEzSqlMysql</text>
</g>
<!-- \\ezSQL_mysql -->
<g id="node22" class="node"><title>\\ezSQL_mysql</title>
<ellipse fill="none" stroke="black" cx="258.294" cy="-72" rx="63.8893" ry="18"/>
<text text-anchor="middle" x="258.294" y="-68.3" font-family="Times,serif" font-size="14.00" fill="gray">\ezSQL_mysql</text>
</g>
<!-- \\OwpEzSqlMysql&#45;&gt;\\ezSQL_mysql -->
<g id="edge4" class="edge"><title>\\OwpEzSqlMysql&#45;&gt;\\ezSQL_mysql</title>
<path fill="none" stroke="black" d="M420.357,-654.062C411.271,-650.132 402.755,-644.649 396.588,-637 243.789,-447.479 479.328,-281.94 324.588,-94 322.858,-91.8991 320.921,-89.9979 318.825,-88.2775"/>
<polygon fill="none" stroke="black" points="320.343,-85.0855 310.069,-82.4977 316.486,-90.9276 320.343,-85.0855"/>
</g>
<!-- \\OwpEzSqlMysqli -->
<g id="node8" class="node"><title>\\OwpEzSqlMysqli</title>
<polygon fill="none" stroke="black" points="528.088,-250 417.088,-250 417.088,-214 528.088,-214 528.088,-250"/>
<text text-anchor="middle" x="472.588" y="-229.2" font-family="Courier,monospace" font-size="11.00">OwpEzSqlMysqli</text>
</g>
<!-- \\ezSQL_mysqli -->
<g id="node23" class="node"><title>\\ezSQL_mysqli</title>
<ellipse fill="none" stroke="black" cx="258.294" cy="-18" rx="66.0889" ry="18"/>
<text text-anchor="middle" x="258.294" y="-14.3" font-family="Times,serif" font-size="14.00" fill="gray">\ezSQL_mysqli</text>
</g>
<!-- \\OwpEzSqlMysqli&#45;&gt;\\ezSQL_mysqli -->
<g id="edge5" class="edge"><title>\\OwpEzSqlMysqli&#45;&gt;\\ezSQL_mysqli</title>
<path fill="none" stroke="black" d="M416.965,-218.314C409.55,-214.82 402.479,-210.452 396.588,-205 339.359,-152.032 380.569,-99.2854 324.588,-45 321.137,-41.6536 317.213,-38.699 313.041,-36.0947"/>
<polygon fill="none" stroke="black" points="314.65,-32.9851 304.202,-31.2277 311.273,-39.1171 314.65,-32.9851"/>
</g>
<!-- \\OwpFramework -->
<g id="node9" class="node"><title>\\OwpFramework</title>
<polygon fill="none" stroke="black" points="521.588,-628 423.588,-628 423.588,-592 521.588,-592 521.588,-628"/>
<text text-anchor="middle" x="472.588" y="-607.2" font-family="Courier,monospace" font-size="11.00">OwpFramework</text>
</g>
<!-- \\OwpMessaging -->
<g id="node10" class="node"><title>\\OwpMessaging</title>
<polygon fill="none" stroke="black" points="521.588,-574 423.588,-574 423.588,-538 521.588,-538 521.588,-574"/>
<text text-anchor="middle" x="472.588" y="-553.2" font-family="Courier,monospace" font-size="11.00">OwpMessaging</text>
</g>
<!-- \\OwpPasswordValidator -->
<g id="node12" class="node"><title>\\OwpPasswordValidator</title>
<polygon fill="none" stroke="black" points="548.588,-520 396.588,-520 396.588,-484 548.588,-484 548.588,-520"/>
<text text-anchor="middle" x="472.588" y="-499.2" font-family="Courier,monospace" font-size="11.00">OwpPasswordValidator</text>
</g>
<!-- \\OwpPostmark -->
<g id="node13" class="node"><title>\\OwpPostmark</title>
<polygon fill="none" stroke="black" points="518.088,-466 427.088,-466 427.088,-430 518.088,-430 518.088,-466"/>
<text text-anchor="middle" x="472.588" y="-445.2" font-family="Courier,monospace" font-size="11.00">OwpPostmark</text>
</g>
<!-- \\OwpSettings -->
<g id="node14" class="node"><title>\\OwpSettings</title>
<polygon fill="none" stroke="black" points="518.088,-412 427.088,-412 427.088,-376 518.088,-376 518.088,-412"/>
<text text-anchor="middle" x="472.588" y="-391.2" font-family="Courier,monospace" font-size="11.00">OwpSettings</text>
</g>
<!-- \\OwpStdObject -->
<g id="node15" class="node"><title>\\OwpStdObject</title>
<polygon fill="none" stroke="black" points="521.588,-358 423.588,-358 423.588,-322 521.588,-322 521.588,-358"/>
<text text-anchor="middle" x="472.588" y="-337.2" font-family="Courier,monospace" font-size="11.00">OwpStdObject</text>
</g>
<!-- \\OwpSupportMethods -->
<g id="node16" class="node"><title>\\OwpSupportMethods</title>
<polygon fill="none" stroke="black" points="538.088,-304 407.088,-304 407.088,-268 538.088,-268 538.088,-304"/>
<text text-anchor="middle" x="472.588" y="-283.2" font-family="Courier,monospace" font-size="11.00">OwpSupportMethods</text>
</g>
<!-- \\OwpUserException -->
<g id="node17" class="node"><title>\\OwpUserException</title>
<polygon fill="none" stroke="black" points="535.088,-736 410.088,-736 410.088,-700 535.088,-700 535.088,-736"/>
<text text-anchor="middle" x="472.588" y="-715.2" font-family="Courier,monospace" font-size="11.00">OwpUserException</text>
</g>
<!-- \\OwpUserException&#45;&gt;\\OwpException -->
<g id="edge6" class="edge"><title>\\OwpUserException&#45;&gt;\\OwpException</title>
<path fill="none" stroke="black" d="M410.009,-700.38C405.194,-697.675 400.638,-694.568 396.588,-691 320.424,-623.9 280.939,-504.45 266.214,-450.2"/>
<polygon fill="none" stroke="black" points="269.527,-449.034 263.596,-440.255 262.757,-450.816 269.527,-449.034"/>
</g>
<!-- \\OwpUsers -->
<g id="node18" class="node"><title>\\OwpUsers</title>
<polygon fill="none" stroke="black" points="508.088,-196 437.088,-196 437.088,-160 508.088,-160 508.088,-196"/>
<text text-anchor="middle" x="472.588" y="-175.2" font-family="Courier,monospace" font-size="11.00">OwpUsers</text>
</g>
<!-- \\OwpAjax -->
<g id="node19" class="node"><title>\\OwpAjax</title>
<polygon fill="none" stroke="black" points="504.588,-142 440.588,-142 440.588,-106 504.588,-106 504.588,-142"/>
<text text-anchor="middle" x="472.588" y="-121.2" font-family="Courier,monospace" font-size="11.00">OwpAjax</text>
</g>
</g>
</svg>
