<?xml version="1.0" encoding="UTF-8" standalone="no"?>
<!DOCTYPE svg PUBLIC "-//W3C//DTD SVG 1.1//EN"
 "http://www.w3.org/Graphics/SVG/1.1/DTD/svg11.dtd">
<!-- Generated by graphviz version 2.38.0 (20140413.2041)
 -->
<!-- Title: G Pages: 1 -->
<svg width="386pt" height="672pt"
 viewBox="0.00 0.00 385.59 672.00" xmlns="http://www.w3.org/2000/svg" xmlns:xlink="http://www.w3.org/1999/xlink">
<g id="graph0" class="graph" transform="scale(1 1) rotate(0) translate(4 668)">
<title>G</title>
<polygon fill="white" stroke="none" points="-4,4 -4,-668 381.586,-668 381.586,4 -4,4"/>
<g id="clust1" class="cluster"><title>cluster_Global</title>
<path fill="none" stroke="gray" d="M54.793,-152C54.793,-152 357.586,-152 357.586,-152 363.586,-152 369.586,-158 369.586,-164 369.586,-164 369.586,-644 369.586,-644 369.586,-650 363.586,-656 357.586,-656 357.586,-656 54.793,-656 54.793,-656 48.793,-656 42.793,-650 42.793,-644 42.793,-644 42.793,-164 42.793,-164 42.793,-158 48.793,-152 54.793,-152"/>
<text text-anchor="middle" x="206.189" y="-643.2" font-family="Times,serif" font-size="11.00" fill="gray">Global</text>
</g>
<!-- \\OwpBaseFramework -->
<g id="node1" class="node"><title>\\OwpBaseFramework</title>
<polygon fill="none" stroke="black" points="358.586,-628 233.586,-628 233.586,-592 358.586,-592 358.586,-628"/>
<text text-anchor="middle" x="296.086" y="-607.2" font-family="Courier,monospace" font-size="11.00">OwpBaseFramework</text>
</g>
<!-- \\OwpDefaultMod -->
<g id="node2" class="node"><title>\\OwpDefaultMod</title>
<polygon fill="none" stroke="black" points="348.086,-574 244.086,-574 244.086,-538 348.086,-538 348.086,-574"/>
<text text-anchor="middle" x="296.086" y="-553.2" font-family="Courier,monospace" font-size="11.00">OwpDefaultMod</text>
</g>
<!-- \\OwpMod -->
<g id="node7" class="node"><title>\\OwpMod</title>
<polygon fill="none" stroke="black" points="107.793,-574 50.793,-574 50.793,-538 107.793,-538 107.793,-574"/>
<text text-anchor="middle" x="79.293" y="-553.2" font-family="Courier,monospace" font-size="11.00">OwpMod</text>
</g>
<!-- \\OwpDefaultMod&#45;&gt;\\OwpMod -->
<g id="edge1" class="edge"><title>\\OwpDefaultMod&#45;&gt;\\OwpMod</title>
<path fill="none" stroke="black" d="M243.911,-556C205.227,-556 152.991,-556 118.048,-556"/>
<polygon fill="none" stroke="black" points="117.793,-552.5 107.793,-556 117.793,-559.5 117.793,-552.5"/>
</g>
<!-- \\OwpEzSqlMysql -->
<g id="node3" class="node"><title>\\OwpEzSqlMysql</title>
<polygon fill="none" stroke="black" points="348.086,-520 244.086,-520 244.086,-484 348.086,-484 348.086,-520"/>
<text text-anchor="middle" x="296.086" y="-499.2" font-family="Courier,monospace" font-size="11.00">OwpEzSqlMysql</text>
</g>
<!-- \\ezSQL_mysql -->
<g id="node11" class="node"><title>\\ezSQL_mysql</title>
<ellipse fill="none" stroke="black" cx="79.293" cy="-126" rx="76.0865" ry="18"/>
<text text-anchor="middle" x="79.293" y="-122.3" font-family="Times,serif" font-size="14.00" fill="gray">\ezSQL_mysql</text>
</g>
<!-- \\OwpEzSqlMysql&#45;&gt;\\ezSQL_mysql -->
<g id="edge2" class="edge"><title>\\OwpEzSqlMysql&#45;&gt;\\ezSQL_mysql</title>
<path fill="none" stroke="black" d="M243.933,-486.351C238.921,-483.218 234.32,-479.473 230.586,-475 135.226,-360.754 260.761,-256.194 158.586,-148 156.259,-145.536 153.681,-143.341 150.918,-141.386"/>
<polygon fill="none" stroke="black" points="152.537,-138.277 142.145,-136.212 148.98,-144.307 152.537,-138.277"/>
</g>
<!-- \\OwpEzSqlMysqli -->
<g id="node4" class="node"><title>\\OwpEzSqlMysqli</title>
<polygon fill="none" stroke="black" points="351.586,-466 240.586,-466 240.586,-430 351.586,-430 351.586,-466"/>
<text text-anchor="middle" x="296.086" y="-445.2" font-family="Courier,monospace" font-size="11.00">OwpEzSqlMysqli</text>
</g>
<!-- \\ezSQL_mysqli -->
<g id="node12" class="node"><title>\\ezSQL_mysqli</title>
<ellipse fill="none" stroke="black" cx="79.293" cy="-72" rx="79.0865" ry="18"/>
<text text-anchor="middle" x="79.293" y="-68.3" font-family="Times,serif" font-size="14.00" fill="gray">\ezSQL_mysqli</text>
</g>
<!-- \\OwpEzSqlMysqli&#45;&gt;\\ezSQL_mysqli -->
<g id="edge3" class="edge"><title>\\OwpEzSqlMysqli&#45;&gt;\\ezSQL_mysqli</title>
<path fill="none" stroke="black" d="M240.57,-430.089C236.867,-427.456 233.47,-424.444 230.586,-421 136.432,-308.573 256.308,-208.34 158.586,-99 155.141,-95.1457 151.12,-91.8414 146.752,-89.0087"/>
<polygon fill="none" stroke="black" points="148.423,-85.9335 137.984,-84.122 145.015,-92.0479 148.423,-85.9335"/>
</g>
<!-- \\OwpFirePHP -->
<g id="node5" class="node"><title>\\OwpFirePHP</title>
<polygon fill="none" stroke="black" points="338.086,-412 254.086,-412 254.086,-376 338.086,-376 338.086,-412"/>
<text text-anchor="middle" x="296.086" y="-391.2" font-family="Courier,monospace" font-size="11.00">OwpFirePHP</text>
</g>
<!-- \\FirePHP -->
<g id="node13" class="node"><title>\\FirePHP</title>
<ellipse fill="none" stroke="black" cx="79.293" cy="-18" rx="53.8905" ry="18"/>
<text text-anchor="middle" x="79.293" y="-14.3" font-family="Times,serif" font-size="14.00" fill="gray">\FirePHP</text>
</g>
<!-- \\OwpFirePHP&#45;&gt;\\FirePHP -->
<g id="edge4" class="edge"><title>\\OwpFirePHP&#45;&gt;\\FirePHP</title>
<path fill="none" stroke="black" d="M254.052,-383.671C245.243,-379.738 236.743,-374.352 230.586,-367 136.432,-254.573 256.308,-154.34 158.586,-45 152.801,-38.5275 145.39,-33.6062 137.442,-29.8645"/>
<polygon fill="none" stroke="black" points="138.512,-26.521 127.93,-25.9915 135.872,-33.0042 138.512,-26.521"/>
</g>
<!-- \\OwpMessaging -->
<g id="node6" class="node"><title>\\OwpMessaging</title>
<polygon fill="none" stroke="black" points="345.086,-358 247.086,-358 247.086,-322 345.086,-322 345.086,-358"/>
<text text-anchor="middle" x="296.086" y="-337.2" font-family="Courier,monospace" font-size="11.00">OwpMessaging</text>
</g>
<!-- \\OwpSupportMethods -->
<g id="node8" class="node"><title>\\OwpSupportMethods</title>
<polygon fill="none" stroke="black" points="361.586,-304 230.586,-304 230.586,-268 361.586,-268 361.586,-304"/>
<text text-anchor="middle" x="296.086" y="-283.2" font-family="Courier,monospace" font-size="11.00">OwpSupportMethods</text>
</g>
<!-- \\OwpUsers -->
<g id="node9" class="node"><title>\\OwpUsers</title>
<polygon fill="none" stroke="black" points="331.586,-250 260.586,-250 260.586,-214 331.586,-214 331.586,-250"/>
<text text-anchor="middle" x="296.086" y="-229.2" font-family="Courier,monospace" font-size="11.00">OwpUsers</text>
</g>
<!-- \\OwpAjax -->
<g id="node10" class="node"><title>\\OwpAjax</title>
<polygon fill="none" stroke="black" points="328.086,-196 264.086,-196 264.086,-160 328.086,-160 328.086,-196"/>
<text text-anchor="middle" x="296.086" y="-175.2" font-family="Courier,monospace" font-size="11.00">OwpAjax</text>
</g>
</g>
</svg>
