<?xml version="1.0" encoding="UTF-8" standalone="no"?>
<!DOCTYPE svg PUBLIC "-//W3C//DTD SVG 1.1//EN"
 "http://www.w3.org/Graphics/SVG/1.1/DTD/svg11.dtd">
<!-- Generated by graphviz version 2.38.0 (20140413.2041)
 -->
<!-- Title: G Pages: 1 -->
<svg width="386pt" height="420pt"
 viewBox="0.00 0.00 385.59 420.00" xmlns="http://www.w3.org/2000/svg" xmlns:xlink="http://www.w3.org/1999/xlink">
<g id="graph0" class="graph" transform="scale(1 1) rotate(0) translate(4 416)">
<title>G</title>
<polygon fill="white" stroke="none" points="-4,4 -4,-416 381.586,-416 381.586,4 -4,4"/>
<g id="clust1" class="cluster"><title>cluster_Global</title>
<path fill="none" stroke="gray" d="M234.586,-8C234.586,-8 357.586,-8 357.586,-8 363.586,-8 369.586,-14 369.586,-20 369.586,-20 369.586,-392 369.586,-392 369.586,-398 363.586,-404 357.586,-404 357.586,-404 234.586,-404 234.586,-404 228.586,-404 222.586,-398 222.586,-392 222.586,-392 222.586,-20 222.586,-20 222.586,-14 228.586,-8 234.586,-8"/>
<text text-anchor="middle" x="296.086" y="-391.2" font-family="Times,serif" font-size="11.00" fill="gray">Global</text>
</g>
<!-- \\OwpBaseFramework -->
<g id="node1" class="node"><title>\\OwpBaseFramework</title>
<polygon fill="none" stroke="black" points="358.586,-376 233.586,-376 233.586,-340 358.586,-340 358.586,-376"/>
<text text-anchor="middle" x="296.086" y="-355.2" font-family="Courier,monospace" font-size="11.00">OwpBaseFramework</text>
</g>
<!-- \\OwpEzSqlMysql -->
<g id="node2" class="node"><title>\\OwpEzSqlMysql</title>
<polygon fill="none" stroke="black" points="348.086,-322 244.086,-322 244.086,-286 348.086,-286 348.086,-322"/>
<text text-anchor="middle" x="296.086" y="-301.2" font-family="Courier,monospace" font-size="11.00">OwpEzSqlMysql</text>
</g>
<!-- \\ezSQL_mysql -->
<g id="node8" class="node"><title>\\ezSQL_mysql</title>
<ellipse fill="none" stroke="black" cx="79.293" cy="-304" rx="76.0865" ry="18"/>
<text text-anchor="middle" x="79.293" y="-300.3" font-family="Times,serif" font-size="14.00" fill="gray">\ezSQL_mysql</text>
</g>
<!-- \\OwpEzSqlMysql&#45;&gt;\\ezSQL_mysql -->
<g id="edge1" class="edge"><title>\\OwpEzSqlMysql&#45;&gt;\\ezSQL_mysql</title>
<path fill="none" stroke="black" d="M243.911,-304C220.475,-304 192.064,-304 165.539,-304"/>
<polygon fill="none" stroke="black" points="165.479,-300.5 155.479,-304 165.479,-307.5 165.479,-300.5"/>
</g>
<!-- \\OwpEzSqlMysqli -->
<g id="node3" class="node"><title>\\OwpEzSqlMysqli</title>
<polygon fill="none" stroke="black" points="351.586,-268 240.586,-268 240.586,-232 351.586,-232 351.586,-268"/>
<text text-anchor="middle" x="296.086" y="-247.2" font-family="Courier,monospace" font-size="11.00">OwpEzSqlMysqli</text>
</g>
<!-- \\ezSQL_mysqli -->
<g id="node9" class="node"><title>\\ezSQL_mysqli</title>
<ellipse fill="none" stroke="black" cx="79.293" cy="-250" rx="79.0865" ry="18"/>
<text text-anchor="middle" x="79.293" y="-246.3" font-family="Times,serif" font-size="14.00" fill="gray">\ezSQL_mysqli</text>
</g>
<!-- \\OwpEzSqlMysqli&#45;&gt;\\ezSQL_mysqli -->
<g id="edge2" class="edge"><title>\\OwpEzSqlMysqli&#45;&gt;\\ezSQL_mysqli</title>
<path fill="none" stroke="black" d="M240.329,-250C218.686,-250 193.255,-250 169.115,-250"/>
<polygon fill="none" stroke="black" points="168.863,-246.5 158.863,-250 168.863,-253.5 168.863,-246.5"/>
</g>
<!-- \\OwpMessaging -->
<g id="node4" class="node"><title>\\OwpMessaging</title>
<polygon fill="none" stroke="black" points="345.086,-214 247.086,-214 247.086,-178 345.086,-178 345.086,-214"/>
<text text-anchor="middle" x="296.086" y="-193.2" font-family="Courier,monospace" font-size="11.00">OwpMessaging</text>
</g>
<!-- \\OwpMod -->
<g id="node5" class="node"><title>\\OwpMod</title>
<polygon fill="none" stroke="black" points="324.586,-160 267.586,-160 267.586,-124 324.586,-124 324.586,-160"/>
<text text-anchor="middle" x="296.086" y="-139.2" font-family="Courier,monospace" font-size="11.00">OwpMod</text>
</g>
<!-- \\OwpSupportMethods -->
<g id="node6" class="node"><title>\\OwpSupportMethods</title>
<polygon fill="none" stroke="black" points="361.586,-106 230.586,-106 230.586,-70 361.586,-70 361.586,-106"/>
<text text-anchor="middle" x="296.086" y="-85.2" font-family="Courier,monospace" font-size="11.00">OwpSupportMethods</text>
</g>
<!-- \\OwpUsers -->
<g id="node7" class="node"><title>\\OwpUsers</title>
<polygon fill="none" stroke="black" points="331.586,-52 260.586,-52 260.586,-16 331.586,-16 331.586,-52"/>
<text text-anchor="middle" x="296.086" y="-31.2" font-family="Courier,monospace" font-size="11.00">OwpUsers</text>
</g>
</g>
</svg>
