<?xml version="1.0" encoding="UTF-8" standalone="no"?>
<!DOCTYPE svg PUBLIC "-//W3C//DTD SVG 1.1//EN"
 "http://www.w3.org/Graphics/SVG/1.1/DTD/svg11.dtd">
<!-- Generated by graphviz version 2.38.0 (20140413.2041)
 -->
<!-- Title: G Pages: 1 -->
<svg width="386pt" height="564pt"
 viewBox="0.00 0.00 385.59 564.00" xmlns="http://www.w3.org/2000/svg" xmlns:xlink="http://www.w3.org/1999/xlink">
<g id="graph0" class="graph" transform="scale(1 1) rotate(0) translate(4 560)">
<title>G</title>
<polygon fill="white" stroke="none" points="-4,4 -4,-560 381.586,-560 381.586,4 -4,4"/>
<g id="clust1" class="cluster"><title>cluster_Global</title>
<path fill="none" stroke="gray" d="M51.293,-98C51.293,-98 357.586,-98 357.586,-98 363.586,-98 369.586,-104 369.586,-110 369.586,-110 369.586,-536 369.586,-536 369.586,-542 363.586,-548 357.586,-548 357.586,-548 51.293,-548 51.293,-548 45.293,-548 39.293,-542 39.293,-536 39.293,-536 39.293,-110 39.293,-110 39.293,-104 45.293,-98 51.293,-98"/>
<text text-anchor="middle" x="204.439" y="-535.2" font-family="Times,serif" font-size="11.00" fill="gray">Global</text>
</g>
<!-- \\OwpBaseFramework -->
<g id="node1" class="node"><title>\\OwpBaseFramework</title>
<polygon fill="none" stroke="black" points="358.586,-520 233.586,-520 233.586,-484 358.586,-484 358.586,-520"/>
<text text-anchor="middle" x="296.086" y="-499.2" font-family="Courier,monospace" font-size="11.00">OwpBaseFramework</text>
</g>
<!-- \\OwpDefaultAjax -->
<g id="node2" class="node"><title>\\OwpDefaultAjax</title>
<polygon fill="none" stroke="black" points="351.586,-466 240.586,-466 240.586,-430 351.586,-430 351.586,-466"/>
<text text-anchor="middle" x="296.086" y="-445.2" font-family="Courier,monospace" font-size="11.00">OwpDefaultAjax</text>
</g>
<!-- \\OwpAjax -->
<g id="node9" class="node"><title>\\OwpAjax</title>
<polygon fill="none" stroke="black" points="111.293,-466 47.293,-466 47.293,-430 111.293,-430 111.293,-466"/>
<text text-anchor="middle" x="79.293" y="-445.2" font-family="Courier,monospace" font-size="11.00">OwpAjax</text>
</g>
<!-- \\OwpDefaultAjax&#45;&gt;\\OwpAjax -->
<g id="edge1" class="edge"><title>\\OwpDefaultAjax&#45;&gt;\\OwpAjax</title>
<path fill="none" stroke="black" stroke-dasharray="1,5" d="M240.329,-448C203.43,-448 155.517,-448 121.768,-448"/>
<polygon fill="none" stroke="black" points="121.34,-444.5 111.34,-448 121.34,-451.5 121.34,-444.5"/>
</g>
<!-- \\OwpEzSqlMysql -->
<g id="node3" class="node"><title>\\OwpEzSqlMysql</title>
<polygon fill="none" stroke="black" points="348.086,-412 244.086,-412 244.086,-376 348.086,-376 348.086,-412"/>
<text text-anchor="middle" x="296.086" y="-391.2" font-family="Courier,monospace" font-size="11.00">OwpEzSqlMysql</text>
</g>
<!-- \\ezSQL_mysql -->
<g id="node10" class="node"><title>\\ezSQL_mysql</title>
<ellipse fill="none" stroke="black" cx="79.293" cy="-72" rx="76.0865" ry="18"/>
<text text-anchor="middle" x="79.293" y="-68.3" font-family="Times,serif" font-size="14.00" fill="gray">\ezSQL_mysql</text>
</g>
<!-- \\OwpEzSqlMysql&#45;&gt;\\ezSQL_mysql -->
<g id="edge2" class="edge"><title>\\OwpEzSqlMysql&#45;&gt;\\ezSQL_mysql</title>
<path fill="none" stroke="black" d="M243.799,-378.002C238.876,-374.938 234.331,-371.304 230.586,-367 148.213,-272.341 246.6,-183.439 158.586,-94 156.209,-91.5848 153.59,-89.429 150.795,-87.5054"/>
<polygon fill="none" stroke="black" points="152.358,-84.3666 141.947,-82.4031 148.861,-90.4306 152.358,-84.3666"/>
</g>
<!-- \\OwpEzSqlMysqli -->
<g id="node4" class="node"><title>\\OwpEzSqlMysqli</title>
<polygon fill="none" stroke="black" points="351.586,-358 240.586,-358 240.586,-322 351.586,-322 351.586,-358"/>
<text text-anchor="middle" x="296.086" y="-337.2" font-family="Courier,monospace" font-size="11.00">OwpEzSqlMysqli</text>
</g>
<!-- \\ezSQL_mysqli -->
<g id="node11" class="node"><title>\\ezSQL_mysqli</title>
<ellipse fill="none" stroke="black" cx="79.293" cy="-18" rx="79.0865" ry="18"/>
<text text-anchor="middle" x="79.293" y="-14.3" font-family="Times,serif" font-size="14.00" fill="gray">\ezSQL_mysqli</text>
</g>
<!-- \\OwpEzSqlMysqli&#45;&gt;\\ezSQL_mysqli -->
<g id="edge3" class="edge"><title>\\OwpEzSqlMysqli&#45;&gt;\\ezSQL_mysqli</title>
<path fill="none" stroke="black" d="M240.729,-321.953C236.991,-319.35 233.542,-316.382 230.586,-313 149.409,-220.147 242.708,-135.194 158.586,-45 155.06,-41.2197 150.98,-37.9687 146.572,-35.1728"/>
<polygon fill="none" stroke="black" points="148.2,-32.0738 137.748,-30.3378 144.836,-38.2126 148.2,-32.0738"/>
</g>
<!-- \\OwpMessaging -->
<g id="node5" class="node"><title>\\OwpMessaging</title>
<polygon fill="none" stroke="black" points="345.086,-304 247.086,-304 247.086,-268 345.086,-268 345.086,-304"/>
<text text-anchor="middle" x="296.086" y="-283.2" font-family="Courier,monospace" font-size="11.00">OwpMessaging</text>
</g>
<!-- \\OwpMod -->
<g id="node6" class="node"><title>\\OwpMod</title>
<polygon fill="none" stroke="black" points="324.586,-250 267.586,-250 267.586,-214 324.586,-214 324.586,-250"/>
<text text-anchor="middle" x="296.086" y="-229.2" font-family="Courier,monospace" font-size="11.00">OwpMod</text>
</g>
<!-- \\OwpSupportMethods -->
<g id="node7" class="node"><title>\\OwpSupportMethods</title>
<polygon fill="none" stroke="black" points="361.586,-196 230.586,-196 230.586,-160 361.586,-160 361.586,-196"/>
<text text-anchor="middle" x="296.086" y="-175.2" font-family="Courier,monospace" font-size="11.00">OwpSupportMethods</text>
</g>
<!-- \\OwpUsers -->
<g id="node8" class="node"><title>\\OwpUsers</title>
<polygon fill="none" stroke="black" points="331.586,-142 260.586,-142 260.586,-106 331.586,-106 331.586,-142"/>
<text text-anchor="middle" x="296.086" y="-121.2" font-family="Courier,monospace" font-size="11.00">OwpUsers</text>
</g>
</g>
</svg>
